<svg width="96" height="96" viewBox="0 0 96 96" fill="none" xmlns="http://www.w3.org/2000/svg">
<path d="M29.8161 35.53C27.1961 35.53 24.8161 34.46 23.1061 32.73C24.5261 36.07 30.6261 48.13 44.8161 49.41C39.0961 43.04 37.8761 33.91 37.6361 31.39C35.9361 33.89 33.0661 35.54 29.8161 35.54V35.53ZM41.6361 47.51C33.9561 45.72 29.2261 40.48 26.6161 36.41C27.6361 36.72 28.7161 36.89 29.8161 36.89C32.3461 36.89 34.7661 36.01 36.6761 34.44C37.2761 37.82 38.6261 42.96 41.6361 47.51ZM29.8161 33.25C33.7661 33.25 36.9661 30.06 36.9661 26.13C36.9661 22.2 33.7661 19 29.8161 19C25.8661 19 22.6661 22.19 22.6661 26.12C22.6661 30.05 25.8661 33.24 29.8161 33.24V33.25ZM29.8161 20.37C33.0061 20.37 35.5961 22.95 35.5961 26.13C35.5961 29.31 33.0061 31.89 29.8161 31.89C26.6261 31.89 24.0361 29.31 24.0361 26.13C24.0361 22.95 26.6261 20.37 29.8161 20.37ZM72.8861 32.72C71.1761 34.45 68.7961 35.52 66.1761 35.52C62.9261 35.52 60.0561 33.87 58.3561 31.37C58.1261 33.89 56.9061 43.02 51.1761 49.39C65.3661 48.12 71.4661 36.05 72.8861 32.71V32.72ZM59.3161 34.44C61.2261 36.01 63.6361 36.89 66.1761 36.89C67.2761 36.89 68.3561 36.73 69.3761 36.41C66.7661 40.47 62.0461 45.72 54.3561 47.51C57.3661 42.96 58.7161 37.82 59.3161 34.44ZM66.1761 33.25C70.1261 33.25 73.3261 30.06 73.3261 26.13C73.3261 22.2 70.1261 19.01 66.1761 19.01C62.2261 19.01 59.0261 22.2 59.0261 26.13C59.0261 30.06 62.2261 33.25 66.1761 33.25ZM66.1761 20.37C69.3661 20.37 71.9561 22.95 71.9561 26.13C71.9561 29.31 69.3661 31.89 66.1761 31.89C62.9861 31.89 60.3961 29.31 60.3961 26.13C60.3961 22.95 62.9861 20.37 66.1761 20.37ZM47.9961 33.25C51.9461 33.25 55.1461 30.06 55.1461 26.13C55.1461 22.2 51.9461 19.01 47.9961 19.01C44.0461 19.01 40.8461 22.2 40.8461 26.13C40.8461 30.06 44.0461 33.25 47.9961 33.25ZM47.9961 20.37C51.1861 20.37 53.7761 22.95 53.7761 26.13C53.7761 29.31 51.1861 31.89 47.9961 31.89C44.8061 31.89 42.2161 29.31 42.2161 26.13C42.2161 22.95 44.8061 20.37 47.9961 20.37ZM56.1761 30.8C54.5461 33.62 51.4861 35.52 47.9961 35.52C44.5061 35.52 41.4461 33.62 39.8161 30.8C39.8961 32.92 40.6561 43.46 47.9961 49.39C55.3361 43.45 56.0961 32.91 56.1761 30.8ZM47.9961 47.59C43.9961 43.85 42.3361 38.56 41.6561 34.84C43.4761 36.15 45.6861 36.9 47.9961 36.9C50.3061 36.9 52.5161 36.16 54.3361 34.84C53.6561 38.56 52.0061 43.86 47.9961 47.59ZM42.6861 59.7C37.6561 55.53 30.3461 46.65 30.3461 46.65C30.3461 46.65 29.4361 46.99 29.4361 49.4C29.4361 49.4 29.3561 54.92 33.3961 59.93C33.3961 59.93 27.6661 58.03 23.1061 51.58C23.1061 51.58 21.1961 48.23 19.7061 42.83C19.3461 41.53 18.7561 40.31 17.9761 39.21C17.3261 38.35 16.8061 38.44 16.4661 38.69C16.1861 38.9 16.0261 39.24 16.0161 39.59C15.9361 42.25 15.8261 58.1 24.5261 65.9C25.0761 66.39 25.6061 66.89 26.1461 67.39C36.2361 76.81 46.0361 77.38 46.0361 77.38C46.0361 77.38 49.6961 65.39 42.6861 59.7ZM45.0061 75.87C42.2361 75.4 34.7261 73.52 27.0861 66.4C26.6061 65.95 26.0361 65.42 25.4461 64.89C18.0561 58.27 17.3861 45.03 17.3661 40.8C17.8061 41.56 18.1461 42.36 18.3761 43.19C19.8961 48.68 21.8261 52.11 21.9061 52.25L21.9361 52.31L21.9761 52.36C26.7461 59.1 32.7061 61.13 32.9561 61.22L37.3661 62.68L34.4561 59.07C30.7961 54.53 30.7961 49.46 30.7961 49.41C30.7961 49.38 30.7961 49.35 30.7961 49.31C33.2261 52.15 38.0761 57.65 41.7961 60.74C46.8561 64.85 45.6461 72.91 44.9961 75.86L45.0061 75.87ZM79.9761 39.59C79.9661 39.24 79.8161 38.9 79.5261 38.69C79.1861 38.44 78.6661 38.35 78.0161 39.21C77.2361 40.31 76.6461 41.53 76.2861 42.83C74.7961 48.22 72.8861 51.58 72.8861 51.58C68.3261 58.03 62.5961 59.93 62.5961 59.93C66.6361 54.92 66.5561 49.4 66.5561 49.4C66.5561 46.99 65.6461 46.65 65.6461 46.65C65.6461 46.65 58.3361 55.53 53.3061 59.7C46.2961 65.39 49.9561 77.38 49.9561 77.38C49.9561 77.38 59.7561 76.81 69.8461 67.39C70.3861 66.89 70.9161 66.39 71.4661 65.9C80.1661 58.1 80.0561 42.24 79.9761 39.59ZM70.5461 64.89C69.9561 65.42 69.3861 65.95 68.9061 66.4C61.2661 73.53 53.7561 75.4 50.9861 75.87C50.3361 72.92 49.1261 64.86 54.1861 60.75C57.9161 57.66 62.7561 52.16 65.1861 49.32C65.1861 49.35 65.1861 49.38 65.1861 49.42C65.1861 49.47 65.1861 54.54 61.5261 59.08L58.6161 62.69L63.0261 61.23C63.2761 61.15 69.2361 59.11 74.0061 52.37L74.0461 52.32L74.0761 52.26C74.1561 52.12 76.0861 48.7 77.6061 43.2C77.8361 42.37 78.1761 41.56 78.6161 40.81C78.5961 45.04 77.9361 58.28 70.5461 64.9V64.89Z" fill="#DDA909"/>
</svg>
