<svg width="16" height="17" viewBox="0 0 16 17" fill="none" xmlns="http://www.w3.org/2000/svg">
<path d="M4.64 0.5H11.36C13.92 0.5 16 2.58 16 5.14V11.86C16 13.0906 15.5111 14.2708 14.641 15.141C13.7708 16.0111 12.5906 16.5 11.36 16.5H4.64C2.08 16.5 0 14.42 0 11.86V5.14C0 3.9094 0.488856 2.72919 1.35902 1.85902C2.22919 0.988856 3.4094 0.5 4.64 0.5ZM4.48 2.1C3.71618 2.1 2.98364 2.40343 2.44353 2.94353C1.90343 3.48364 1.6 4.21618 1.6 4.98V12.02C1.6 13.612 2.888 14.9 4.48 14.9H11.52C12.2838 14.9 13.0164 14.5966 13.5565 14.0565C14.0966 13.5164 14.4 12.7838 14.4 12.02V4.98C14.4 3.388 13.112 2.1 11.52 2.1H4.48ZM12.2 3.3C12.4652 3.3 12.7196 3.40536 12.9071 3.59289C13.0946 3.78043 13.2 4.03478 13.2 4.3C13.2 4.56522 13.0946 4.81957 12.9071 5.00711C12.7196 5.19464 12.4652 5.3 12.2 5.3C11.9348 5.3 11.6804 5.19464 11.4929 5.00711C11.3054 4.81957 11.2 4.56522 11.2 4.3C11.2 4.03478 11.3054 3.78043 11.4929 3.59289C11.6804 3.40536 11.9348 3.3 12.2 3.3ZM8 4.5C9.06087 4.5 10.0783 4.92143 10.8284 5.67157C11.5786 6.42172 12 7.43913 12 8.5C12 9.56087 11.5786 10.5783 10.8284 11.3284C10.0783 12.0786 9.06087 12.5 8 12.5C6.93913 12.5 5.92172 12.0786 5.17157 11.3284C4.42143 10.5783 4 9.56087 4 8.5C4 7.43913 4.42143 6.42172 5.17157 5.67157C5.92172 4.92143 6.93913 4.5 8 4.5ZM8 6.1C7.36348 6.1 6.75303 6.35286 6.30294 6.80294C5.85286 7.25303 5.6 7.86348 5.6 8.5C5.6 9.13652 5.85286 9.74697 6.30294 10.1971C6.75303 10.6471 7.36348 10.9 8 10.9C8.63652 10.9 9.24697 10.6471 9.69706 10.1971C10.1471 9.74697 10.4 9.13652 10.4 8.5C10.4 7.86348 10.1471 7.25303 9.69706 6.80294C9.24697 6.35286 8.63652 6.1 8 6.1Z" fill="#DDA909"/>
</svg>
