<svg width="14" height="17" viewBox="0 0 14 17" fill="none" xmlns="http://www.w3.org/2000/svg">
<path d="M13.9991 6.87803C13.9991 7.06583 13.8455 7.22033 13.6577 7.21094C12.6543 7.16064 11.6744 6.88958 10.7879 6.41709C10.548 6.28905 10.2433 6.4555 10.2433 6.7278V11.4875C10.2432 12.4859 9.95135 13.4625 9.40356 14.2972C8.85578 15.132 8.07597 15.7884 7.16005 16.1857C6.24412 16.5831 5.23203 16.7041 4.24825 16.5338C3.26447 16.3636 2.3519 15.9095 1.62279 15.2274C0.893673 14.5454 0.379811 13.6651 0.144403 12.6948C-0.0910052 11.7246 -0.0376941 10.7067 0.297779 9.76629C0.633253 8.82594 1.23626 8.00414 2.03263 7.40197C2.829 6.7998 3.78401 6.44353 4.7802 6.37697C4.82472 6.37461 4.86924 6.38146 4.911 6.39708C4.95275 6.4127 4.99084 6.43676 5.02288 6.46776C5.05492 6.49876 5.08022 6.53603 5.09722 6.57725C5.11421 6.61846 5.12252 6.66274 5.12164 6.70731V9.09741C5.12164 9.2852 4.96799 9.43629 4.7819 9.46702C4.39666 9.53181 4.03797 9.70539 3.74812 9.9673C3.45827 10.2292 3.24935 10.5685 3.14599 10.9453C3.04263 11.322 3.04914 11.7204 3.16475 12.0936C3.28036 12.4667 3.50025 12.7991 3.7985 13.0514C4.09675 13.3037 4.46092 13.4655 4.84807 13.5176C5.23523 13.5698 5.62923 13.5102 5.98362 13.3458C6.33801 13.1814 6.63802 12.9192 6.84827 12.5899C7.05853 12.2607 7.17026 11.8782 7.17029 11.4875V0.732068C7.17029 0.641511 7.20627 0.554664 7.2703 0.490631C7.33433 0.426598 7.42118 0.390625 7.51174 0.390625H9.90183C9.99312 0.392953 10.0803 0.429228 10.1462 0.492365C10.2122 0.555503 10.2523 0.640967 10.2586 0.732068C10.3385 1.60678 10.7223 2.42585 11.3435 3.04685C11.9647 3.66786 12.7838 4.05152 13.6586 4.13113C13.8464 4.1482 14 4.29929 14 4.48794L13.9991 6.87803Z" fill="#DDA909"/>
</svg>
