<svg width="20" height="17" viewBox="0 0 20 17" fill="none" xmlns="http://www.w3.org/2000/svg">
<path d="M10 0.5C10.855 0.5 11.732 0.522 12.582 0.558L13.586 0.606L14.547 0.663L15.447 0.724L16.269 0.788C17.1612 0.855891 18.0008 1.23643 18.64 1.8626C19.2791 2.48877 19.6768 3.3204 19.763 4.211L19.803 4.636L19.878 5.546C19.948 6.489 20 7.517 20 8.5C20 9.483 19.948 10.511 19.878 11.454L19.803 12.364L19.763 12.789C19.6768 13.6798 19.2789 14.5115 18.6396 15.1377C18.0002 15.7639 17.1604 16.1443 16.268 16.212L15.448 16.275L14.548 16.337L13.586 16.394L12.582 16.442C11.7218 16.4793 10.861 16.4986 10 16.5C9.13902 16.4986 8.27817 16.4793 7.418 16.442L6.414 16.394L5.453 16.337L4.553 16.275L3.731 16.212C2.83881 16.1441 1.9992 15.7636 1.36004 15.1374C0.720888 14.5112 0.323191 13.6796 0.237 12.789L0.197 12.364L0.122 11.454C0.0458327 10.4711 0.00513964 9.48581 0 8.5C0 7.517 0.052 6.489 0.122 5.546L0.197 4.636L0.237 4.211C0.323157 3.32055 0.720712 2.48905 1.35966 1.86291C1.99861 1.23676 2.83799 0.856116 3.73 0.788L4.551 0.724L5.451 0.663L6.413 0.606L7.417 0.558C8.2775 0.520727 9.13869 0.50139 10 0.5ZM10 2.5C9.175 2.5 8.326 2.522 7.5 2.556L6.522 2.603L5.583 2.658L4.701 2.718L3.893 2.781C3.46819 2.81074 3.06769 2.99013 2.76266 3.28728C2.45763 3.58444 2.26784 3.98012 2.227 4.404C2.11 5.613 2 7.118 2 8.5C2 9.882 2.11 11.387 2.227 12.596C2.312 13.468 3.004 14.146 3.893 14.219L4.701 14.281L5.583 14.341L6.522 14.397L7.5 14.444C8.326 14.478 9.175 14.5 10 14.5C10.825 14.5 11.674 14.478 12.5 14.444L13.478 14.397L14.417 14.342L15.299 14.282L16.107 14.219C16.5318 14.1893 16.9323 14.0099 17.2373 13.7127C17.5424 13.4156 17.7322 13.0199 17.773 12.596C17.89 11.387 18 9.882 18 8.5C18 7.118 17.89 5.613 17.773 4.404C17.7322 3.98012 17.5424 3.58444 17.2373 3.28728C16.9323 2.99013 16.5318 2.81074 16.107 2.781L15.299 2.719L14.417 2.659L13.478 2.603L12.5 2.556C11.6671 2.52025 10.8336 2.50158 10 2.5ZM8 6.075C7.99994 5.97726 8.02375 5.88099 8.06937 5.79455C8.11498 5.70812 8.18103 5.63413 8.26175 5.57903C8.34248 5.52394 8.43544 5.48939 8.53256 5.47841C8.62968 5.46742 8.72801 5.48033 8.819 5.516L8.9 5.556L13.1 7.98C13.1836 8.02826 13.2544 8.09599 13.3063 8.17744C13.3581 8.25889 13.3896 8.35165 13.3979 8.44785C13.4062 8.54405 13.3912 8.64084 13.3542 8.73C13.3171 8.81916 13.2591 8.89806 13.185 8.96L13.1 9.02L8.9 11.445C8.81536 11.494 8.72003 11.5216 8.62229 11.5253C8.52456 11.5291 8.4274 11.5089 8.33926 11.4665C8.25112 11.4241 8.17468 11.3608 8.1166 11.2821C8.05851 11.2034 8.02054 11.1117 8.006 11.015L8 10.925V6.075Z" fill="#DDA909"/>
</svg>
