<svg width="372" height="360" viewBox="0 0 372 360" fill="none" xmlns="http://www.w3.org/2000/svg">
<path d="M0 4.00001C0 1.79087 1.79086 0 4 0H368C370.209 0 372 1.79086 372 4V356C372 358.209 370.209 360 368 360H4C1.79086 360 0 358.209 0 356V4.00001Z" fill="black"/>
<path d="M0 4.00001C0 1.79087 1.79086 0 4 0H368C370.209 0 372 1.79086 372 4V356C372 358.209 370.209 360 368 360H4C1.79086 360 0 358.209 0 356V4.00001Z" fill="url(#paint0_linear_1114_3764)" fill-opacity="0.5"/>
<defs>
<linearGradient id="paint0_linear_1114_3764" x1="186" y1="0" x2="186" y2="360" gradientUnits="userSpaceOnUse">
<stop stop-color="#091E06"/>
<stop offset="1" stop-color="#193B18"/>
</linearGradient>
</defs>
</svg>
