<svg width="372" height="360" viewBox="0 0 372 360" fill="none" xmlns="http://www.w3.org/2000/svg">
<path d="M115.256 232.873H107V259.284H111.831V250.177H115.256C117.335 250.177 119.111 249.33 120.575 247.641C122.039 245.952 122.771 243.913 122.771 241.528C122.771 239.143 122.039 237.103 120.575 235.414C119.111 233.725 117.34 232.878 115.256 232.878V232.873ZM116.969 243.947C116.32 244.623 115.544 244.959 114.637 244.959H111.914V238.14H114.637C115.544 238.14 116.325 238.471 116.969 239.128C117.618 239.79 117.94 240.588 117.94 241.523C117.94 242.457 117.613 243.265 116.969 243.942V243.947ZM142.851 232.873H147.711V259.284H142.851V248.376H137.64V259.284H132.76V232.873H137.64V243.747H142.851V232.873ZM169.704 233.53C168.592 232.82 167.406 232.464 166.147 232.464C164.888 232.464 163.702 232.82 162.59 233.53C161.477 234.241 160.584 235.21 159.911 236.441C159.237 237.673 158.901 239.001 158.901 240.437V252.027C158.901 253.458 159.237 254.792 159.911 256.023C160.584 257.255 161.477 258.223 162.59 258.934C163.702 259.645 164.888 260 166.147 260C167.406 260 168.592 259.645 169.704 258.934C170.817 258.223 171.715 257.255 172.393 256.023C173.071 254.792 173.408 253.463 173.408 252.027V240.437C173.408 239.006 173.066 237.673 172.393 236.441C171.715 235.21 170.817 234.241 169.704 233.53ZM169.114 252.027C169.114 252.738 168.831 253.429 168.265 254.101C167.699 254.772 167.084 255.113 166.425 255.113C165.766 255.113 165.137 254.777 164.561 254.101C163.985 253.429 163.697 252.738 163.697 252.027V240.437C163.697 239.727 163.985 239.036 164.561 238.364C165.137 237.692 165.757 237.351 166.425 237.351C167.094 237.351 167.694 237.687 168.265 238.364C168.831 239.036 169.114 239.727 169.114 240.437V252.027ZM185.109 232.873H198.387V237.989H189.955V243.261H197.836V248.376H189.955V254.174H198.387V259.289H185.109V232.873ZM219.014 232.873H223.791V259.284H219.526L213.661 247.291V259.284H208.898V232.873H213.148L219.014 247.291V232.873ZM235.009 232.873H239.889V259.284H235.009V232.873ZM265 232.873L255.011 259.284H249.59L259.92 232.873H265ZM253.538 242.959L249.59 232.873H255.011L256.226 236.086L253.538 242.959ZM261.223 249.301L264.995 259.28H259.92L258.661 256.067L261.218 249.301H261.223Z" fill="white"/>
<path d="M180.899 151.727L116.438 129.963L113.063 119.241L177.969 144.823L180.912 151.727H180.899ZM118.387 136.15L121.686 146.642L186.006 163.718L182.287 154.994L118.387 136.15ZM173.028 133.242L107 100L111.216 113.399L176.072 140.442L173.028 133.242ZM186.006 163.718L250.327 146.642L253.626 136.15L189.726 154.994L186.006 163.718ZM191.114 151.727L255.575 129.963L258.95 119.241L194.043 144.823L191.101 151.727H191.114ZM198.972 133.242L195.928 140.442L260.784 113.399L265 100L198.972 133.242ZM196.896 121.585L185.994 106.777L175.091 121.585L185.994 146.642L196.896 121.585ZM186.006 212.537L199.418 193.885L186.006 163.705L172.595 193.885L186.006 212.537Z" fill="white"/>
</svg>
