<svg width="372" height="360" viewBox="0 0 372 360" fill="none" xmlns="http://www.w3.org/2000/svg">
<path d="M146.978 164.572C144.566 164.572 142.242 164.874 141.295 165.13C139.918 165.517 139.574 166.119 139.315 167.366L133.848 192.55C133.76 193.064 133.676 193.494 133.676 193.925C133.676 195.172 134.494 195.986 135.828 195.986C137.293 195.986 137.896 195.041 138.196 193.579L139.746 186.403C140.821 186.531 142.242 186.661 144.266 186.661C153.18 186.661 158.731 181.849 158.731 174.586C158.731 168.224 154.295 164.572 146.978 164.572ZM144.051 182.535C142.673 182.535 141.595 182.492 140.608 182.364L143.492 168.997C144.395 168.869 145.732 168.695 147.109 168.695C151.846 168.695 154.257 170.931 154.257 174.627C154.254 179.354 150.808 182.535 144.051 182.535ZM289 189.493C289 190.526 287.925 192.116 286.46 193.404C284.951 194.739 282.974 195.855 280.734 195.855C276.86 195.855 275.051 193.32 275.051 189.839C275.051 188.464 275.266 187.132 275.438 186.315L277.032 178.924H275.266C273.976 178.924 273.373 178.282 273.373 177.421C273.373 175.874 274.276 175.013 275.826 175.013H277.85L278.84 170.457C279.143 168.994 279.787 168.049 281.208 168.049C282.542 168.049 283.361 168.91 283.361 170.114C283.361 170.544 283.277 171.018 283.189 171.533L282.414 175.013H286.897C288.188 175.013 288.747 175.656 288.747 176.516C288.747 178.063 287.841 178.924 286.335 178.924H281.555L279.962 186.403C279.746 187.475 279.575 188.464 279.575 189.281C279.575 190.744 280.178 191.645 281.296 191.645C282.542 191.645 283.533 190.744 285.126 189.11C286.029 188.121 286.504 187.691 287.235 187.691C288.225 187.691 289 188.508 289 189.493ZM188.004 168.483L182.624 193.448C182.321 194.91 181.678 195.855 180.212 195.855C178.922 195.855 178.06 195.041 178.06 193.794C178.06 193.364 178.147 192.933 178.275 192.419L183.655 167.45C183.958 165.988 184.602 165.043 186.023 165.043C187.357 165.043 188.22 165.86 188.22 167.107C188.22 167.538 188.091 167.965 188.004 168.483ZM265.063 174.583C258.174 174.583 253.482 181.416 253.482 187.906C253.482 188.027 253.485 188.149 253.488 188.268C252.407 189.905 251.027 191.601 250.08 191.601C249.393 191.601 249.133 190.956 249.133 189.967C249.133 188.763 249.477 186.743 249.864 184.981L253.438 168.477C253.526 167.962 253.61 167.532 253.61 167.101C253.61 165.854 252.792 165.037 251.458 165.037C249.992 165.037 249.393 165.982 249.09 167.444L247.153 176.382C246.119 175.31 244.61 174.577 242.329 174.577C237.755 174.577 233.154 178.091 231.36 183.484C229.386 188.579 227.621 191.595 226.227 191.595C225.712 191.595 225.409 191.165 225.409 190.435C225.409 188.286 226.615 183.044 227.13 180.508C227.302 179.563 227.39 179.177 227.39 178.618C227.39 176.729 224.247 174.492 220.157 174.492C215.427 174.492 211.144 177.483 208.998 181.924C205.808 187.55 202.881 191.595 201.431 191.595C200.785 191.595 200.569 190.778 200.397 190.005L199.326 184.082L205.911 178.712C206.514 178.197 207.289 177.465 207.289 176.52C207.289 175.359 206.514 174.586 205.352 174.586C204.49 174.586 203.759 175.101 203.028 175.702L193.127 183.867L196.442 168.483C196.53 167.968 196.658 167.538 196.658 167.107C196.658 165.86 195.795 165.043 194.461 165.043C193.04 165.043 192.396 165.988 192.093 167.45L186.714 192.419C186.586 192.933 186.498 193.364 186.498 193.794C186.498 195.041 187.36 195.855 188.651 195.855C190.116 195.855 190.759 194.91 191.062 193.448L191.753 190.226L195.799 186.961L196.789 191.945C197.176 193.922 198.21 195.855 200.878 195.855C203.546 195.855 205.624 193.435 207.717 190.164C208.351 193.591 210.794 195.855 214.184 195.855C217.574 195.855 219.91 193.834 221.416 191.127V191.215C221.416 194.009 222.838 195.855 225.334 195.855C227.593 195.855 229.467 194.496 231.142 191.608C232.091 194.124 234.216 195.855 237.171 195.855C240.658 195.855 243.154 193.75 244.747 190.828V191.087C244.747 194.181 246.297 195.858 248.837 195.858C251.08 195.858 252.985 194.558 254.613 192.444C255.85 194.558 258.068 195.858 261.064 195.858C267.953 195.858 272.645 189.025 272.645 182.492C272.642 177.892 269.843 174.583 265.063 174.583ZM222.144 183.309C220.895 188.679 218.227 191.732 215.212 191.732C213.187 191.732 212.069 190.186 212.069 187.865C212.069 183.309 215.384 178.409 219.817 178.409C221.151 178.409 222.185 178.796 223.088 179.354L222.144 183.309ZM246.122 181.032C244.744 187.351 241.601 191.732 238.158 191.732C236.265 191.732 235.144 190.27 235.144 187.865C235.144 183.268 238.33 178.497 242.591 178.497C244.228 178.497 245.475 179.055 246.381 179.785L246.122 181.032ZM261.577 191.732C259.08 191.732 258.046 189.927 258.046 187.65C258.046 183.48 260.93 178.712 264.548 178.712C267.044 178.712 268.078 180.518 268.078 182.794C268.078 187.005 265.194 191.732 261.577 191.732ZM169.45 174.583C162.561 174.583 157.869 181.416 157.869 187.906C157.869 192.546 160.668 195.855 165.445 195.855C172.333 195.855 177.026 189.022 177.026 182.489C177.026 177.892 174.227 174.583 169.45 174.583ZM165.963 191.732C163.467 191.732 162.433 189.927 162.433 187.65C162.433 183.48 165.317 178.712 168.934 178.712C171.431 178.712 172.465 180.518 172.465 182.794C172.462 187.005 169.578 191.732 165.963 191.732Z" fill="white"/>
<path d="M111.66 162.623C111.66 165.17 108.103 167.235 103.716 167.235C99.3278 167.235 95.771 165.17 95.771 162.623C95.771 160.075 99.3278 158.01 103.716 158.01C108.103 158.01 111.66 160.075 111.66 162.623ZM103.716 192.765C99.3278 192.765 95.771 194.83 95.771 197.377C95.771 199.925 99.3278 201.99 103.716 201.99C108.103 201.99 111.66 199.925 111.66 197.377C111.66 194.83 108.103 192.765 103.716 192.765ZM84.668 178.18C86.8795 179.455 90.4507 177.413 92.6444 173.62C94.8382 169.827 94.8241 165.719 92.6126 164.444C90.401 163.17 86.8298 165.212 84.6361 169.005C82.4424 172.798 82.4564 176.906 84.668 178.18ZM122.763 181.821C120.553 180.547 116.983 182.59 114.789 186.383C112.595 190.176 112.608 194.283 114.818 195.557C117.028 196.831 120.598 194.788 122.792 190.995C124.985 187.202 124.973 183.095 122.763 181.821ZM84.6689 181.82C82.4573 183.094 82.4433 187.203 84.637 190.996C86.8308 194.789 90.4019 196.83 92.6135 195.556C94.8251 194.281 94.8391 190.173 92.6454 186.38C90.4516 182.587 86.8805 180.545 84.6689 181.82ZM122.765 178.181C124.975 176.908 124.987 172.8 122.794 169.007C120.6 165.214 117.03 163.171 114.82 164.445C112.61 165.719 112.597 169.827 114.791 173.62C116.985 177.413 120.555 179.455 122.765 178.181Z" fill="#E6007A"/>
</svg>
