<svg width="372" height="360" viewBox="0 0 372 360" fill="none" xmlns="http://www.w3.org/2000/svg">
<path d="M148.841 184.408C148.841 177.973 153.147 173.745 159.68 173.745C165.187 173.745 168.819 176.431 169.688 181.108V181.781H164.152C163.781 179.545 162.121 178.227 159.65 178.227C156.311 178.227 154.485 180.405 154.485 184.408C154.485 188.157 156.418 190.364 159.621 190.364C162.189 190.364 163.927 188.958 164.327 186.429H169.864V187.103C168.926 192.093 165.196 194.846 159.553 194.846C153.02 194.846 148.851 190.745 148.851 184.408H148.841ZM174.853 178.969C174.853 178.198 174.59 177.944 173.789 177.944H172.822V174.517C172.822 174.517 173.926 173.941 176.025 173.941C178.691 173.941 180.028 174.995 180.028 177.143V177.622H180.263C181.434 175.024 183.563 173.716 186.668 173.716C187.332 173.716 188.006 173.784 188.67 173.911V178.715H186.805C182.137 178.715 180.438 180.737 180.438 186.205V194.436H174.834V178.969H174.863H174.853ZM205.269 187.962H210.776V188.734C209.77 192.444 205.904 194.846 200.904 194.846C194.372 194.846 190.066 190.813 190.066 184.701C190.066 177.788 194.235 173.784 201.51 173.784C207.212 173.784 210.981 176.382 210.981 180.19C210.981 184.769 207.915 186.371 195.973 187.044C196.569 189.505 198.239 190.755 200.944 190.755C203.277 190.726 204.81 189.7 205.279 187.972L205.269 187.962ZM195.798 183.227C203.404 182.934 205.367 182.201 205.337 180.19C205.308 178.715 203.873 177.885 201.5 177.885C198.102 177.885 196.169 179.643 195.798 183.236V183.227ZM214.448 184.183C214.448 177.905 218.422 173.687 224.29 173.687C227.19 173.687 229.426 174.839 230.461 176.821H230.695L230.529 174.224V165.944H236.134V189.632C236.134 190.403 236.398 190.657 237.198 190.657H238.165V194.114C238.165 194.114 237.062 194.69 234.962 194.69C232.297 194.69 230.959 193.635 230.959 191.487V191.419H230.725C229.358 193.625 227.024 194.944 224.085 194.944C218.246 194.914 214.448 190.784 214.448 184.183ZM230.754 184.183C230.754 180.629 228.684 178.227 225.481 178.227C222.083 178.227 220.111 180.336 220.111 184.183C220.111 188.031 222.015 190.364 225.413 190.364C228.616 190.394 230.754 187.962 230.754 184.183ZM256.405 187.962H261.941V188.734C260.945 192.444 257.069 194.846 252.069 194.846C245.527 194.846 241.231 190.813 241.231 184.701C241.231 177.788 245.4 173.784 252.675 173.784C258.377 173.784 262.146 176.382 262.146 180.19C262.146 184.769 259.08 186.371 247.138 187.044C247.705 189.505 249.374 190.755 252.079 190.755C254.413 190.726 255.985 189.7 256.415 187.972L256.405 187.962ZM246.933 183.227C254.54 182.934 256.502 182.201 256.473 180.19C256.444 178.715 255.008 177.885 252.636 177.885C249.238 177.885 247.334 179.643 246.933 183.236V183.227ZM288.988 190.686V194.114C288.988 194.114 287.885 194.69 285.786 194.69C282.847 194.69 281.353 193.284 281.353 190.433V178.813H274.547V194.309H268.942V178.813H264.744V174.234H268.981V173.365C268.981 167.926 271.95 165.202 277.886 165.202C280.991 165.202 282.759 165.846 282.759 165.846V170.523H282.056C282.056 170.523 280.757 169.918 278.492 169.918C275.66 169.918 274.586 170.914 274.586 173.726V174.273H286.996V189.7C286.996 190.472 287.26 190.725 288.061 190.725H288.998V190.696L288.988 190.686Z" fill="white"/>
<path d="M122.087 185.756C123.21 186.839 123.21 188.577 122.087 189.652L120.163 191.497C119.041 192.581 117.224 192.581 116.101 191.497L106.669 182.445C105.546 181.362 105.546 179.624 106.669 178.549L116.101 169.498C117.224 168.414 119.041 168.414 120.163 169.498L122.087 171.343C123.21 172.427 123.21 174.165 122.087 175.239L117.879 179.243C117.185 179.907 117.185 181.02 117.879 181.684L122.087 185.756ZM134.126 178.579L130.748 175.337C129.625 174.253 127.809 174.253 126.686 175.337L123.308 178.579C122.185 179.663 122.185 181.401 123.308 182.475L126.686 185.716C127.809 186.8 129.625 186.8 130.748 185.716L134.126 182.475C135.249 181.391 135.249 179.653 134.126 178.579ZM101.221 181.752C100.527 181.088 100.527 179.975 101.221 179.311L111.415 169.527C112.538 168.443 112.538 166.705 111.415 165.631L106.415 160.788C105.292 159.704 103.476 159.704 102.353 160.788L83.8402 178.549C82.7173 179.633 82.7173 181.371 83.8402 182.445L102.344 200.207C103.466 201.291 105.283 201.291 106.406 200.207L111.415 195.403C112.538 194.319 112.538 192.581 111.415 191.507L101.221 181.752Z" fill="url(#paint0_linear_1114_3795)"/>
<defs>
<linearGradient id="paint0_linear_1114_3795" x1="83.0005" y1="180.502" x2="134.976" y2="180.502" gradientUnits="userSpaceOnUse">
<stop stop-color="#1F3C87"/>
<stop offset="0.21" stop-color="#203F89"/>
<stop offset="0.39" stop-color="#224A91"/>
<stop offset="0.55" stop-color="#265B9E"/>
<stop offset="0.71" stop-color="#2C74B0"/>
<stop offset="0.86" stop-color="#3493C6"/>
<stop offset="1" stop-color="#3CB6E0"/>
</linearGradient>
</defs>
</svg>
