<svg width="372" height="360" viewBox="0 0 372 360" fill="none" xmlns="http://www.w3.org/2000/svg">
<path d="M158.206 172.276C157.664 172.095 156.52 171.975 155.376 171.975C151.945 171.975 148.272 174.755 148.272 178.187V194.552H140.445V165.352H147.971V168.302C149.717 166.135 152.908 164.75 156.46 164.75C157.348 164.757 158.234 164.837 159.109 164.991L158.206 172.276Z" fill="white"/>
<path d="M167.056 150C169.886 150 172.173 152.167 172.173 154.997C172.173 157.827 169.886 159.994 167.056 159.994C164.226 159.994 161.938 157.827 161.938 154.997C161.938 152.167 164.226 150 167.056 150ZM170.969 194.552H163.142V165.352H170.969V194.552Z" fill="white"/>
<path d="M194.089 164.749C190.983 164.71 187.96 165.754 185.54 167.702V165.352H178.013V209H185.84V192.506C188.066 194.264 190.831 195.2 193.667 195.155C198.003 195.155 202.156 193.227 204.745 190.217C207.033 187.567 208.416 183.957 208.416 179.982C208.416 171.373 202.034 164.749 194.089 164.749ZM193.138 188.049C188.276 188.049 185.08 184.694 185.08 180.008C185.08 175.322 188.276 171.967 193.138 171.967C197.287 171.967 200.652 175.567 200.652 180.008C200.652 184.448 197.288 188.049 193.138 188.049Z" fill="white"/>
<path d="M255.919 194.552H248.092V151.806H255.919V194.552Z" fill="white"/>
<path d="M287.828 189.916C284.998 193.288 280.362 195.154 275.847 195.154C267.117 195.154 260.554 189.134 260.554 179.982C260.554 171.855 266.094 164.75 274.763 164.75C282.831 164.75 288.55 171.553 288.55 179.681C288.555 180.428 288.494 181.173 288.37 181.909H268.14C268.562 186.003 271.873 188.833 276.028 188.833C279.339 188.833 281.988 186.966 283.373 185.461L287.828 189.916ZM280.543 176.189C280.302 173.601 277.954 171.072 274.763 171.072C271.512 171.072 268.863 173.541 268.502 176.189H280.543Z" fill="white"/>
<path d="M229.129 164.749C226.023 164.71 223 165.754 220.58 167.702V165.352H213.053V209H220.88V192.506C223.106 194.264 225.871 195.2 228.708 195.155C233.043 195.155 237.196 193.227 239.785 190.217C242.074 187.567 243.456 183.957 243.456 179.982C243.456 171.373 237.075 164.749 229.129 164.749ZM228.178 188.049C223.316 188.049 220.12 184.694 220.12 180.008C220.12 175.322 223.316 171.967 228.178 171.967C232.328 171.967 235.692 175.567 235.692 180.008C235.692 184.448 232.328 188.049 228.178 188.049Z" fill="white"/>
<path d="M124.311 183.914C122.543 182.894 120.553 182.598 118.582 182.529C116.928 182.471 114.461 181.411 114.461 178.403C114.461 176.162 116.278 174.358 118.583 174.277C120.554 174.208 122.544 173.912 124.311 172.892C125.897 171.976 127.215 170.658 128.131 169.071C129.048 167.484 129.53 165.684 129.53 163.852C129.53 162.019 129.048 160.219 128.131 158.632C127.215 157.045 125.897 155.728 124.31 154.812C122.724 153.895 120.923 153.413 119.091 153.413C117.259 153.413 115.458 153.896 113.872 154.812C112.285 155.728 110.967 157.046 110.051 158.633C109.135 160.22 108.652 162.02 108.652 163.852C108.652 165.875 109.372 167.736 110.29 169.462C111.062 170.914 111.452 173.609 108.804 175.137C106.835 176.274 104.377 175.554 103.149 173.59C102.112 171.93 100.86 170.375 99.1074 169.363C97.5205 168.447 95.7204 167.964 93.888 167.964C92.0556 167.964 90.2555 168.447 88.6686 169.363C87.0817 170.279 85.7639 171.597 84.8478 173.184C83.9316 174.77 83.4492 176.571 83.4492 178.403C83.4492 180.235 83.9316 182.035 84.8478 183.622C85.7639 185.209 87.0817 186.527 88.6686 187.443C90.2555 188.359 92.0556 188.842 93.888 188.842C95.7204 188.842 97.5205 188.359 99.1074 187.443C100.86 186.431 102.112 184.877 103.148 183.219C103.999 181.857 106.125 180.121 108.804 181.669C110.771 182.805 111.379 185.295 110.289 187.345C109.371 189.071 108.653 190.932 108.653 192.954C108.653 194.786 109.135 196.587 110.051 198.173C110.967 199.76 112.285 201.078 113.872 201.994C115.459 202.91 117.259 203.393 119.091 203.393C120.924 203.393 122.724 202.91 124.311 201.994C125.897 201.078 127.215 199.76 128.131 198.173C129.048 196.587 129.53 194.786 129.53 192.954C129.53 191.122 129.048 189.322 128.131 187.735C127.215 186.148 125.897 184.83 124.311 183.914Z" fill="white"/>
</svg>
