<svg width="372" height="360" viewBox="0 0 372 360" fill="none" xmlns="http://www.w3.org/2000/svg">
<path d="M103.916 173.055H97.3348V191.729C97.3348 191.825 97.3158 191.93 97.2776 192.015C97.2395 192.111 97.1822 192.187 97.1155 192.263C97.0487 192.33 96.9629 192.387 96.877 192.425C96.7912 192.464 96.6863 192.483 96.5909 192.483H92.5279C91.9366 192.483 91.3644 192.244 90.9543 191.825C90.5441 191.405 90.2962 190.823 90.2962 190.232V173.055H83.7439C83.6485 173.055 83.5532 173.036 83.4578 172.998C83.372 172.959 83.2861 172.902 83.2194 172.836C83.1526 172.769 83.0954 172.683 83.0572 172.588C83.0191 172.502 83 172.406 83 172.301V167.905C83 167.809 83.0191 167.704 83.0572 167.619C83.0954 167.523 83.1526 167.447 83.2194 167.371C83.2861 167.304 83.372 167.247 83.4578 167.208C83.5532 167.17 83.6485 167.151 83.7439 167.151H102.428C103.019 167.151 103.591 167.39 104.002 167.809C104.412 168.229 104.66 168.811 104.66 169.402V172.301C104.66 172.397 104.641 172.502 104.602 172.588C104.564 172.683 104.507 172.759 104.44 172.836C104.373 172.912 104.288 172.959 104.202 172.998C104.116 173.036 104.011 173.055 103.916 173.055ZM118.365 176.126C118.336 175.954 118.26 175.802 118.127 175.687C116.944 174.695 115.456 174.161 113.921 174.18C112.204 174.18 110.544 174.905 109.629 176.555L109.6 176.412C109.495 175.907 109.228 175.449 108.827 175.115C108.436 174.781 107.941 174.6 107.425 174.59H104.078C103.982 174.59 103.887 174.609 103.792 174.648C103.706 174.686 103.62 174.743 103.553 174.81C103.487 174.877 103.429 174.962 103.391 175.058C103.353 175.153 103.334 175.248 103.334 175.344V190.222C103.334 190.823 103.572 191.395 103.992 191.815C104.412 192.235 104.974 192.473 105.566 192.473H109.199C109.295 192.473 109.39 192.454 109.486 192.416C109.571 192.378 109.657 192.321 109.724 192.254C109.791 192.187 109.848 192.101 109.886 192.006C109.924 191.91 109.943 191.815 109.943 191.72V183.184C109.943 180.837 111.345 179.826 112.976 179.826C113.797 179.779 114.598 179.998 115.294 180.437C115.38 180.494 115.475 180.532 115.57 180.542C115.666 180.551 115.771 180.551 115.866 180.532C115.962 180.504 116.057 180.465 116.133 180.399C116.209 180.342 116.276 180.256 116.324 180.17L118.27 176.612C118.355 176.469 118.384 176.288 118.355 176.126H118.365ZM137.764 175.287C138.184 175.706 138.422 176.288 138.422 176.879V191.729C138.422 191.825 138.403 191.93 138.365 192.015C138.327 192.111 138.27 192.187 138.203 192.263C138.136 192.33 138.05 192.387 137.964 192.425C137.869 192.464 137.774 192.483 137.678 192.483H134.245C133.711 192.483 133.196 192.282 132.795 191.939C132.395 191.596 132.128 191.109 132.042 190.575C130.554 192.311 128.179 192.921 126.205 192.807C121.026 192.492 118.136 188.754 118.136 183.546C118.136 178.339 121.57 174.228 126.72 174.228C129.209 174.228 130.983 175.096 131.899 176.546L132.128 175.239C132.156 175.067 132.252 174.915 132.376 174.81C132.509 174.695 132.671 174.638 132.843 174.638H136.191C136.782 174.638 137.354 174.877 137.764 175.296V175.287ZM131.87 183.537C131.87 181.162 130.554 179.598 128.236 179.598C126.262 179.598 124.688 181.047 124.688 183.537C124.688 186.026 126.262 187.447 128.236 187.447C130.439 187.447 131.87 185.654 131.87 183.537ZM158.642 174.886C158.317 174.714 157.965 174.619 157.593 174.619H154.445C154.293 174.619 154.15 174.657 154.026 174.743C153.902 174.829 153.806 174.943 153.759 175.086L152.042 179.607L150.268 185.396L148.379 179.607L146.634 175.058C146.577 174.915 146.491 174.8 146.367 174.714C146.243 174.629 146.1 174.59 145.947 174.59H140.597C140.473 174.59 140.349 174.619 140.244 174.676C140.139 174.733 140.044 174.819 139.977 174.924C139.91 175.029 139.862 175.144 139.853 175.268C139.843 175.392 139.853 175.516 139.91 175.63L146.491 191.205C146.672 191.605 146.958 191.949 147.33 192.187C147.693 192.425 148.122 192.559 148.551 192.569H153.129C153.282 192.569 153.425 192.53 153.549 192.445C153.673 192.359 153.768 192.244 153.816 192.101L159.653 177.709C159.786 177.366 159.843 176.994 159.805 176.631C159.767 176.269 159.643 175.916 159.443 175.611C159.243 175.306 158.966 175.058 158.642 174.877V174.886ZM179.968 175.344C180.387 175.764 180.626 176.345 180.626 176.937V191.786C180.626 191.882 180.607 191.987 180.568 192.073C180.53 192.168 180.473 192.244 180.406 192.321C180.34 192.387 180.254 192.445 180.168 192.483C180.082 192.521 179.977 192.54 179.882 192.54H176.448C175.914 192.54 175.399 192.34 174.999 191.996C174.598 191.653 174.331 191.167 174.245 190.632C172.757 192.368 170.382 192.979 168.408 192.864C163.229 192.549 160.339 188.811 160.339 183.603C160.339 178.396 163.773 174.285 168.923 174.285C171.412 174.285 173.186 175.153 174.102 176.603L174.331 175.296C174.36 175.125 174.445 174.972 174.579 174.867C174.712 174.753 174.875 174.695 175.046 174.695H178.394C178.985 174.695 179.548 174.934 179.968 175.353V175.344ZM174.073 183.622C174.073 181.248 172.757 179.683 170.44 179.683C168.465 179.683 166.892 181.133 166.892 183.622C166.892 186.112 168.465 187.533 170.44 187.533C172.643 187.533 174.073 185.74 174.073 183.622ZM188.065 167.123H184.517C184.422 167.123 184.326 167.142 184.231 167.18C184.145 167.218 184.059 167.275 183.992 167.342C183.926 167.409 183.868 167.495 183.83 167.59C183.792 167.685 183.773 167.781 183.773 167.876V190.222C183.773 190.823 184.011 191.395 184.431 191.815C184.851 192.235 185.413 192.473 186.005 192.473H189.553C189.648 192.473 189.743 192.454 189.839 192.416C189.925 192.378 190.01 192.321 190.077 192.254C190.144 192.187 190.201 192.101 190.239 192.006C190.278 191.91 190.297 191.815 190.297 191.72V169.383C190.297 168.782 190.058 168.21 189.639 167.79C189.228 167.361 188.656 167.123 188.065 167.123ZM212.185 175.315C212.605 175.735 212.843 176.317 212.843 176.908V191.758C212.843 191.853 212.824 191.958 212.786 192.044C212.748 192.139 212.691 192.216 212.624 192.292C212.557 192.359 212.471 192.416 212.385 192.454C212.3 192.492 212.195 192.511 212.099 192.511H208.666C208.132 192.511 207.617 192.311 207.216 191.968C206.816 191.624 206.548 191.138 206.463 190.604C204.975 192.34 202.6 192.95 200.626 192.836C195.447 192.521 192.557 188.782 192.557 183.575C192.557 178.367 195.991 174.257 201.141 174.257C203.63 174.257 205.404 175.125 206.32 176.574L206.548 175.268C206.577 175.096 206.663 174.943 206.796 174.829C206.93 174.714 207.092 174.657 207.264 174.657H210.611C211.203 174.657 211.775 174.896 212.185 175.315ZM206.291 183.565C206.291 181.19 204.975 179.626 202.657 179.626C200.683 179.626 199.109 181.076 199.109 183.565C199.109 186.054 200.683 187.476 202.657 187.476C204.86 187.476 206.291 185.682 206.291 183.565ZM218.137 186.026C213.387 186.026 213.473 192.54 218.137 192.569C222.886 192.569 222.915 186.026 218.137 186.026ZM238.737 188.811L236.878 186.903C236.582 186.579 236.181 186.369 235.752 186.302C235.323 186.236 234.884 186.312 234.503 186.531C233.854 186.894 233.129 187.085 232.386 187.085C229.896 187.085 228.58 185.349 228.58 183.413C228.58 181.181 229.953 179.331 232.443 179.331C233.292 179.311 234.121 179.569 234.818 180.055C235.008 180.198 235.256 180.265 235.495 180.246C235.733 180.227 235.962 180.113 236.134 179.941L237.507 178.434C237.707 178.215 237.86 177.948 237.955 177.661C238.041 177.375 238.07 177.07 238.022 176.774C237.974 176.479 237.87 176.193 237.698 175.945C237.526 175.697 237.307 175.487 237.049 175.334C235.533 174.476 233.816 174.028 232.071 174.028C227.121 174.028 222.199 176.898 222.199 183.374C222.199 189.85 227.035 192.607 232.185 192.607C234.522 192.569 236.782 191.758 238.623 190.289C238.728 190.203 238.823 190.098 238.89 189.974C238.957 189.85 238.995 189.717 239.005 189.574C239.014 189.431 239.005 189.297 238.957 189.164C238.909 189.03 238.842 188.916 238.747 188.811H238.737ZM259.51 183.365C259.51 189.85 254.417 192.683 249.439 192.683C244.46 192.683 239.367 189.879 239.367 183.365C239.367 176.851 244.317 174.018 249.439 174.018C254.56 174.018 259.51 176.889 259.51 183.365ZM253.072 183.365C253.072 181.305 251.756 179.455 249.439 179.455C247.121 179.455 245.805 181.305 245.805 183.365C245.805 185.425 247.121 187.247 249.439 187.247C251.756 187.247 253.072 185.539 253.072 183.365ZM282.257 173.98C279.825 173.98 277.851 174.705 276.391 176.555C275.504 174.905 273.788 174.066 272.014 174.037C270.183 174.009 268.266 174.762 267.15 176.326C267.026 175.783 266.711 175.296 266.282 174.943C265.843 174.6 265.309 174.409 264.746 174.409H262.085C261.961 174.409 261.847 174.428 261.732 174.476C261.618 174.524 261.523 174.59 261.437 174.676C261.351 174.762 261.284 174.867 261.236 174.981C261.189 175.096 261.17 175.22 261.17 175.334V189.755C261.17 190.423 261.437 191.062 261.894 191.539C262.362 192.015 262.991 192.273 263.649 192.273H266.768C266.892 192.273 267.007 192.254 267.121 192.206C267.235 192.158 267.331 192.092 267.417 192.006C267.503 191.92 267.569 191.815 267.617 191.701C267.665 191.586 267.684 191.462 267.684 191.348V182.487C267.712 180.523 268.885 179.617 270.001 179.617C271.174 179.617 271.861 180.313 271.861 182.363V189.717C271.861 190.384 272.128 191.023 272.596 191.5C273.063 191.977 273.692 192.235 274.35 192.235V192.263H277.383C277.507 192.263 277.622 192.244 277.736 192.197C277.851 192.149 277.946 192.082 278.032 191.996C278.118 191.91 278.184 191.806 278.232 191.691C278.28 191.577 278.299 191.453 278.299 191.338V182.449C278.299 180.485 279.472 179.731 280.588 179.731C281.561 179.731 282.419 180.485 282.419 182.363V189.688C282.419 190.356 282.686 190.995 283.154 191.472C283.621 191.949 284.25 192.206 284.908 192.206H288.084C288.208 192.206 288.323 192.187 288.437 192.139C288.552 192.092 288.647 192.025 288.733 191.939C288.819 191.853 288.886 191.748 288.933 191.634C288.981 191.519 289 191.395 289 191.281V182.278C289 176.345 286.053 173.97 282.247 173.97L282.257 173.98Z" fill="white"/>
</svg>
