<svg width="372" height="360" viewBox="0 0 372 360" fill="none" xmlns="http://www.w3.org/2000/svg">
<path d="M108.197 190.812L111.245 180.448L115.919 179.026L116.935 175.605L112.261 177.061L117.307 160.059C117.443 159.517 117.071 158.975 116.495 158.975H110.161C109.653 158.975 109.213 159.314 109.077 159.788L103.116 179.906L98.4086 181.363L97.3925 184.75L102.066 183.293L97.8328 197.62H122.896C123.404 197.62 123.844 197.281 123.98 196.807L125.402 191.896C125.538 191.354 125.165 190.812 124.589 190.812H108.197Z" fill="white"/>
<path d="M110.805 150C94.5136 150 81.3047 163.209 81.3047 179.5C81.3047 195.791 94.5136 209 110.805 209C127.096 209 140.305 195.791 140.305 179.5C140.271 163.209 127.096 150 110.805 150ZM111.245 180.448L108.197 190.812H124.589C125.165 190.812 125.538 191.354 125.402 191.896L123.98 196.807C123.844 197.281 123.404 197.62 122.896 197.62H97.8328L102.066 183.293L97.3925 184.75L98.4086 181.363L103.116 179.906L109.077 159.788C109.213 159.314 109.653 158.975 110.161 158.975H116.495C117.071 158.975 117.443 159.517 117.307 160.059L112.261 177.061L116.935 175.605L115.919 179.026L111.245 180.448Z" fill="#345D9D"/>
<path d="M157.341 158.941H155.512C155.173 158.941 154.936 159.145 154.868 159.483L150.127 197.044C150.093 197.417 150.195 197.586 150.567 197.586H152.396C152.769 197.586 152.972 197.417 153.04 197.044L157.815 159.483C157.917 159.111 157.713 158.941 157.341 158.941Z" fill="#345D9D"/>
<path d="M166.926 169.78H165.097C164.758 169.78 164.521 169.949 164.453 170.321L161.066 197.078C161.033 197.451 161.236 197.62 161.575 197.62H163.403C163.742 197.62 163.979 197.451 164.047 197.078L167.4 170.355C167.434 169.983 167.298 169.78 166.926 169.78Z" fill="#345D9D"/>
<path d="M247.06 169.339C244.52 169.339 242.319 170.051 240.456 171.507C238.593 172.963 237.374 174.86 236.764 177.231C236.256 179.161 235.816 181.871 235.612 183.7C235.341 186.172 235.104 188.204 235.104 190.169C235.138 192.573 235.917 194.47 237.374 195.927C238.864 197.349 240.896 198.094 243.47 198.094C245.976 198.094 248.178 197.383 250.041 195.927C251.903 194.504 253.123 192.573 253.732 190.169C254.139 188.577 254.545 186.443 254.884 183.7C255.223 180.855 255.392 178.687 255.392 177.197C255.392 174.826 254.647 172.929 253.157 171.507C251.633 170.051 249.6 169.339 247.06 169.339ZM252.208 181.092C252.039 182.447 251.937 183.327 251.903 183.7C251.565 186.477 251.26 188.441 250.989 189.627C250.583 191.388 249.702 192.811 248.381 193.894C247.06 194.978 245.502 195.486 243.775 195.486C242.014 195.486 240.625 194.944 239.575 193.894C238.525 192.844 238.017 191.456 238.017 189.728C238.017 188.814 238.119 187.662 238.288 186.308C238.457 184.953 238.559 184.072 238.593 183.7C238.932 181.058 239.236 179.094 239.507 177.773C239.914 176.011 240.794 174.589 242.115 173.505C243.436 172.421 244.994 171.913 246.721 171.913C248.483 171.913 249.871 172.455 250.921 173.471C251.971 174.521 252.479 175.91 252.479 177.637C252.479 178.619 252.378 179.737 252.208 181.092Z" fill="#345D9D"/>
<path d="M265.824 169.78H264.029C263.69 169.78 263.453 169.983 263.385 170.321L259.964 197.078C259.93 197.451 260.134 197.62 260.472 197.62H262.301C262.64 197.62 262.877 197.451 262.945 197.078L266.298 170.355C266.332 169.983 266.196 169.78 265.824 169.78Z" fill="#345D9D"/>
<path d="M288.922 171.371C287.669 170.051 285.908 169.407 283.605 169.407C282.115 169.407 280.76 169.678 279.507 170.254C278.254 170.83 277.204 171.676 276.323 172.828C276.154 172.963 276.086 172.929 276.086 172.726L276.357 170.355C276.391 170.017 276.255 169.813 275.917 169.813H274.088C273.749 169.813 273.512 170.017 273.444 170.355L270.091 197.078C270.057 197.417 270.159 197.62 270.531 197.62H272.36C272.699 197.62 272.936 197.417 272.97 197.078L275.409 177.908C275.815 176.113 276.662 174.657 277.915 173.607C279.168 172.557 280.658 172.015 282.419 172.015C284.045 172.015 285.332 172.523 286.281 173.539C287.229 174.555 287.703 175.91 287.703 177.637C287.703 178.145 287.669 178.552 287.635 178.857L285.298 197.078C285.298 197.247 285.298 197.349 285.366 197.451C285.468 197.552 285.603 197.62 285.806 197.62H287.635C287.974 197.62 288.211 197.451 288.245 197.078L290.582 178.416C290.65 177.671 290.684 177.129 290.684 176.757C290.785 174.454 290.175 172.658 288.922 171.371Z" fill="#345D9D"/>
<path d="M168.111 158.975C167.027 158.4 165.639 158.806 165.097 159.924C164.521 161.007 164.961 162.396 166.045 162.972C167.129 163.548 168.484 163.107 169.06 162.024C169.635 160.906 169.229 159.551 168.111 158.975Z" fill="#345D9D"/>
<path d="M267.145 158.975C266.061 158.4 264.672 158.806 264.13 159.924C263.554 161.007 263.995 162.396 265.079 162.972C266.162 163.548 267.551 163.107 268.127 162.024C268.669 160.906 268.228 159.551 267.145 158.975Z" fill="#345D9D"/>
<path d="M223.216 169.339C220.676 169.339 218.475 170.084 216.612 171.507C214.749 172.963 213.53 174.86 212.92 177.231C212.412 179.161 211.938 182.21 211.769 183.7C211.532 185.867 211.261 188.204 211.261 190.169C211.294 192.573 212.073 194.47 213.53 195.927C215.02 197.349 217.052 198.094 219.626 198.094C222.133 198.094 224.334 197.383 226.197 195.927C228.06 194.504 229.279 192.573 229.889 190.169C229.922 189.966 229.99 189.762 230.024 189.559C230.058 189.39 229.922 189.254 229.787 189.254H227.518C227.382 189.254 227.213 189.322 227.179 189.525C227.179 189.559 227.145 189.627 227.145 189.627C226.739 191.388 225.858 192.811 224.537 193.894C223.216 194.978 221.658 195.486 219.931 195.486C218.17 195.486 216.781 194.944 215.731 193.894C214.681 192.844 214.173 191.456 214.173 189.728C214.173 188.814 214.275 187.662 214.444 186.308C214.58 185.156 214.715 184.072 214.749 183.7C215.088 181.058 215.393 179.094 215.664 177.773C216.07 176.011 216.951 174.589 218.271 173.505C219.592 172.421 221.15 171.913 222.878 171.913C224.605 171.913 226.027 172.421 227.077 173.471C228.127 174.521 228.635 175.91 228.635 177.637V177.671C228.635 177.908 228.839 178.111 229.076 178.111H231.209C231.379 178.111 231.548 177.976 231.548 177.773C231.548 177.536 231.548 177.332 231.548 177.129C231.548 174.758 230.803 172.862 229.313 171.439C227.789 170.051 225.79 169.339 223.216 169.339Z" fill="#345D9D"/>
<path d="M204.825 171.507C203.335 170.084 201.303 169.339 198.763 169.339C196.223 169.339 194.021 170.051 192.158 171.507C190.296 172.963 189.076 174.86 188.467 177.231C187.959 179.161 187.721 180.889 187.315 183.7C186.942 186.477 186.807 188.204 186.807 190.169C186.841 192.573 187.62 194.47 189.076 195.927C190.566 197.349 192.599 198.094 195.173 198.094C197.679 198.094 199.88 197.383 201.743 195.927C203.606 194.504 204.825 192.573 205.435 190.169C205.469 189.966 205.537 189.762 205.57 189.559C205.604 189.39 205.503 189.254 205.333 189.254H203.064C202.929 189.254 202.759 189.322 202.725 189.525C202.725 189.559 202.692 189.627 202.692 189.627C202.285 191.388 201.405 192.811 200.084 193.894C198.763 194.978 197.205 195.486 195.477 195.486C193.716 195.486 192.328 194.944 191.278 193.894C190.228 192.844 189.72 191.456 189.72 189.728C189.72 188.916 189.787 187.9 189.923 186.748L206.383 181.634C206.722 181.532 206.858 181.363 206.925 180.956C207.027 180.11 207.095 178.653 207.095 177.163C207.061 175.029 206.316 172.929 204.825 171.507ZM204.182 179.195C204.182 179.365 204.08 179.5 203.911 179.534L190.262 183.768C190.262 183.734 190.262 183.734 190.262 183.7C190.6 181.058 190.905 179.094 191.176 177.773C191.583 176.011 192.463 174.589 193.784 173.505C195.105 172.421 196.663 171.913 198.39 171.913C200.151 171.913 201.54 172.455 202.59 173.471C204.25 175.199 204.283 176.96 204.182 179.195Z" fill="#345D9D"/>
<path d="M180.541 194.673C180.88 194.504 181.253 194.741 181.185 195.114L180.948 196.943C180.914 197.18 180.744 197.383 180.541 197.484C178.916 198.094 176.646 198.365 174.817 197.552C172.718 196.604 172.176 194.538 172.48 191.964L174.885 172.354L175.224 169.542L176.037 163.311C176.071 162.938 176.308 162.769 176.68 162.769H178.441C178.848 162.769 178.949 163.006 178.882 163.311L177.832 172.184H183.556C183.894 172.184 184.03 172.387 184.03 172.726L183.86 174.013C183.827 174.216 183.793 174.318 183.691 174.453C183.589 174.555 183.386 174.589 183.251 174.589H177.561L175.563 190.677C175.359 192.404 175.122 193.962 176.003 194.809C177.154 195.757 179.39 195.215 180.541 194.673Z" fill="#345D9D"/>
</svg>
