<svg width="372" height="360" viewBox="0 0 372 360" fill="none" xmlns="http://www.w3.org/2000/svg">
<path d="M148.841 184.404C148.841 177.976 153.147 173.753 159.68 173.753C165.187 173.753 168.819 176.435 169.688 181.107V181.78H164.152C163.781 179.546 162.121 178.23 159.65 178.23C156.311 178.23 154.485 180.405 154.485 184.404C154.485 188.149 156.418 190.354 159.621 190.354C162.189 190.354 163.927 188.949 164.327 186.423H169.864V187.096C168.926 192.08 165.196 194.831 159.553 194.831C153.02 194.831 148.851 190.734 148.851 184.404H148.841ZM174.853 178.971C174.853 178.2 174.59 177.947 173.789 177.947H172.822V174.523C172.822 174.523 173.926 173.948 176.025 173.948C178.691 173.948 180.028 175.001 180.028 177.147V177.625H180.263C181.434 175.03 183.563 173.723 186.668 173.723C187.332 173.723 188.006 173.792 188.67 173.919V178.717H186.805C182.137 178.717 180.438 180.736 180.438 186.199V194.421H174.834V178.971H174.863H174.853ZM205.269 187.954H210.776V188.725C209.77 192.431 205.904 194.831 200.904 194.831C194.372 194.831 190.066 190.802 190.066 184.696C190.066 177.791 194.235 173.792 201.51 173.792C207.212 173.792 210.981 176.386 210.981 180.19C210.981 184.765 207.915 186.364 195.973 187.037C196.569 189.495 198.239 190.744 200.944 190.744C203.277 190.715 204.81 189.69 205.279 187.964L205.269 187.954ZM195.798 183.224C203.404 182.931 205.367 182.2 205.337 180.19C205.308 178.717 203.873 177.888 201.5 177.888C198.102 177.888 196.169 179.644 195.798 183.233V183.224ZM214.448 184.18C214.448 177.908 218.422 173.694 224.29 173.694C227.19 173.694 229.426 174.845 230.461 176.825H230.695L230.529 174.231V165.959H236.134V189.622C236.134 190.393 236.398 190.646 237.198 190.646H238.165V194.099C238.165 194.099 237.062 194.675 234.962 194.675C232.297 194.675 230.959 193.621 230.959 191.475V191.407H230.725C229.358 193.611 227.024 194.928 224.085 194.928C218.246 194.899 214.448 190.773 214.448 184.18ZM230.754 184.18C230.754 180.629 228.684 178.23 225.481 178.23C222.083 178.23 220.111 180.337 220.111 184.18C220.111 188.023 222.015 190.354 225.413 190.354C228.616 190.383 230.754 187.954 230.754 184.18ZM256.405 187.954H261.941V188.725C260.945 192.431 257.069 194.831 252.069 194.831C245.527 194.831 241.231 190.802 241.231 184.696C241.231 177.791 245.4 173.792 252.675 173.792C258.377 173.792 262.146 176.386 262.146 180.19C262.146 184.765 259.08 186.364 247.138 187.037C247.705 189.495 249.374 190.744 252.079 190.744C254.413 190.715 255.985 189.69 256.415 187.964L256.405 187.954ZM246.933 183.224C254.54 182.931 256.502 182.2 256.473 180.19C256.444 178.717 255.008 177.888 252.636 177.888C249.238 177.888 247.334 179.644 246.933 183.233V183.224ZM288.988 190.676V194.099C288.988 194.099 287.885 194.675 285.786 194.675C282.847 194.675 281.353 193.27 281.353 190.422V178.815H274.547V194.294H268.942V178.815H264.744V174.24H268.981V173.372C268.981 167.939 271.95 165.218 277.886 165.218C280.991 165.218 282.759 165.862 282.759 165.862V170.534H282.056C282.056 170.534 280.757 169.929 278.492 169.929C275.66 169.929 274.586 170.924 274.586 173.733V174.279H286.996V189.69C286.996 190.461 287.26 190.715 288.061 190.715H288.998V190.685L288.988 190.676Z" fill="white"/>
<path d="M122.087 185.75C123.21 186.833 123.21 188.569 122.087 189.642L120.163 191.485C119.041 192.568 117.224 192.568 116.101 191.485L106.669 182.443C105.546 181.361 105.546 179.625 106.669 178.552L116.101 169.51C117.224 168.427 119.041 168.427 120.163 169.51L122.087 171.353C123.21 172.436 123.21 174.172 122.087 175.245L117.879 179.244C117.185 179.907 117.185 181.019 117.879 181.683L122.087 185.75ZM134.126 178.581L130.748 175.343C129.625 174.26 127.809 174.26 126.686 175.343L123.308 178.581C122.185 179.664 122.185 181.4 123.308 182.473L126.686 185.711C127.809 186.794 129.625 186.794 130.748 185.711L134.126 182.473C135.249 181.39 135.249 179.654 134.126 178.581ZM101.221 181.751C100.527 181.088 100.527 179.976 101.221 179.312L111.415 169.539C112.538 168.457 112.538 166.72 111.415 165.647L106.415 160.81C105.292 159.727 103.476 159.727 102.353 160.81L83.8402 178.552C82.7173 179.634 82.7173 181.371 83.8402 182.443L102.344 200.186C103.466 201.268 105.283 201.268 106.406 200.186L111.415 195.387C112.538 194.304 112.538 192.568 111.415 191.495L101.221 181.751Z" fill="url(#paint0_linear_1114_3733)"/>
<defs>
<linearGradient id="paint0_linear_1114_3733" x1="83.0005" y1="180.502" x2="134.976" y2="180.502" gradientUnits="userSpaceOnUse">
<stop stop-color="#1F3C87"/>
<stop offset="0.21" stop-color="#203F89"/>
<stop offset="0.39" stop-color="#224A91"/>
<stop offset="0.55" stop-color="#265B9E"/>
<stop offset="0.71" stop-color="#2C74B0"/>
<stop offset="0.86" stop-color="#3493C6"/>
<stop offset="1" stop-color="#3CB6E0"/>
</linearGradient>
</defs>
</svg>
