<svg width="372" height="360" viewBox="0 0 372 360" fill="none" xmlns="http://www.w3.org/2000/svg">
<path d="M153.209 181.812H160.874C161.952 181.812 162.825 182.694 162.825 183.772C162.825 184.859 161.952 185.733 160.874 185.733H151.63C151.481 185.733 151.342 185.788 151.239 185.881L148.452 188.288C148.025 188.659 148.285 189.356 148.842 189.356H160.41C160.41 189.356 160.419 189.356 160.419 189.347C160.419 189.337 160.428 189.337 160.428 189.337C160.577 189.347 160.716 189.356 160.865 189.356C163.931 189.356 166.421 186.857 166.421 183.772C166.421 180.845 164.182 178.439 161.32 178.207C161.32 178.207 161.311 178.207 161.311 178.198C161.311 178.188 161.311 178.188 161.302 178.188H153.051C151.973 178.188 151.1 177.306 151.1 176.228C151.1 175.141 151.973 174.267 153.051 174.267H162.277C162.426 174.267 162.574 174.212 162.686 174.11L165.278 171.703C165.687 171.322 165.417 170.644 164.869 170.644H153.209C153.163 170.644 153.107 170.644 153.061 170.644C149.994 170.644 147.505 173.143 147.505 176.228C147.505 179.312 149.994 181.812 153.061 181.812C153.107 181.812 153.153 181.812 153.209 181.812Z" fill="white"/>
<path d="M197.824 170.635C197.49 170.635 197.22 170.904 197.22 171.248V188.752C197.22 189.087 197.49 189.365 197.824 189.365H211.854C212.021 189.365 212.179 189.291 212.3 189.17L214.056 187.284C214.418 186.894 214.149 186.253 213.61 186.253H201.364C201.03 186.253 200.76 185.983 200.76 185.64V171.239C200.76 170.904 200.491 170.625 200.156 170.625H197.824V170.635Z" fill="white"/>
<path fill-rule="evenodd" clip-rule="evenodd" d="M175.359 170.635C175.359 170.644 175.359 170.644 175.359 170.635C173.566 170.718 172.126 172.158 172.042 173.952V185.723C172.042 185.77 172.042 185.825 172.042 185.872C172.042 187.739 173.51 189.263 175.359 189.337H188.087C189.927 189.254 191.404 187.73 191.404 185.872C191.404 185.825 191.404 185.77 191.404 185.723V173.961C191.33 172.168 189.89 170.718 188.097 170.644H175.359V170.635ZM177.737 173.961C177.728 173.961 177.728 173.961 177.737 173.961C176.613 174.007 175.712 174.918 175.665 176.051V183.456C175.665 183.484 175.665 183.521 175.665 183.549C175.665 184.72 176.585 185.686 177.737 185.733H185.718C186.87 185.686 187.79 184.72 187.79 183.549C187.79 183.521 187.79 183.484 187.79 183.456V176.051C187.744 174.918 186.842 174.017 185.718 173.961H177.737Z" fill="white"/>
<path fill-rule="evenodd" clip-rule="evenodd" d="M234.449 188.752C234.449 189.087 234.719 189.365 235.053 189.365H237.432C237.766 189.365 238.036 189.096 238.036 188.752V174.267C238.036 174.221 238.036 174.165 238.036 174.119C238.036 172.251 236.577 170.728 234.756 170.653H222.538C222.492 170.653 222.436 170.653 222.39 170.653C220.494 170.653 218.961 172.205 218.961 174.128C218.961 174.175 218.961 174.23 218.961 174.277V188.761C218.961 189.096 219.231 189.375 219.565 189.375H221.944C222.278 189.375 222.548 189.105 222.548 188.761V182.732C222.548 182.397 222.817 182.118 223.151 182.118H233.873C234.208 182.118 234.477 182.388 234.477 182.732V188.752H234.449ZM222.529 178.783V175.773C222.529 174.602 223.467 173.654 224.619 173.654H232.368C233.52 173.654 234.459 174.602 234.459 175.773V178.783C234.459 179.117 234.189 179.396 233.855 179.396H223.133C222.798 179.396 222.529 179.127 222.529 178.783Z" fill="white"/>
<path fill-rule="evenodd" clip-rule="evenodd" d="M284.667 189.365C284.332 189.365 284.063 189.096 284.063 188.752V182.722C284.063 182.388 283.794 182.109 283.459 182.109H272.616C272.282 182.109 272.013 182.378 272.013 182.722V188.752C272.013 189.087 271.743 189.365 271.409 189.365H269.012C268.677 189.365 268.408 189.096 268.408 188.752V174.267C268.408 174.221 268.408 174.165 268.408 174.119C268.408 172.205 269.959 170.644 271.873 170.644C271.92 170.644 271.975 170.644 272.022 170.644H284.37C286.209 170.728 287.686 172.251 287.686 174.11C287.686 174.156 287.686 174.212 287.686 174.258V188.743C287.686 189.077 287.417 189.356 287.083 189.356H284.667V189.365ZM272.013 175.773V178.783C272.013 179.117 272.282 179.396 272.616 179.396H283.459C283.794 179.396 284.063 179.127 284.063 178.783V175.773C284.063 174.602 283.115 173.654 281.954 173.654H274.122C272.951 173.654 272.013 174.602 272.013 175.773Z" fill="white"/>
<path d="M246.992 170.635C247.169 170.635 247.336 170.709 247.447 170.848L258.113 183.568C258.476 183.995 259.173 183.735 259.173 183.168V171.248C259.173 170.913 259.442 170.635 259.776 170.635H262.155C262.489 170.635 262.759 170.904 262.759 171.248V188.752C262.759 189.087 262.489 189.365 262.155 189.365H259.2C259.191 189.365 259.182 189.356 259.182 189.347C259.182 189.337 259.182 189.337 259.173 189.328L248.321 176.702C247.958 176.274 247.261 176.544 247.261 177.101V188.761C247.261 189.096 246.992 189.375 246.658 189.375H244.261C243.926 189.375 243.657 189.105 243.657 188.761V171.248C243.657 170.913 243.926 170.635 244.261 170.635H246.992Z" fill="white"/>
<path d="M92.1955 190.006C92.4928 189.709 92.8923 189.542 93.3104 189.542H132.007C132.713 189.542 133.066 190.397 132.565 190.889L124.918 198.535C124.621 198.833 124.221 199 123.803 199H85.1065C84.4004 199 84.0473 198.145 84.549 197.653L92.1955 190.006Z" fill="white"/>
<path d="M92.1955 161.465C92.4928 161.167 92.8923 161 93.3104 161H132.007C132.713 161 133.066 161.855 132.565 162.347L124.918 169.984C124.621 170.282 124.221 170.449 123.803 170.449H85.1065C84.4004 170.449 84.0473 169.594 84.549 169.102L92.1955 161.465Z" fill="white"/>
<path d="M124.918 175.643C124.621 175.345 124.221 175.178 123.803 175.178H85.1065C84.4004 175.178 84.0473 176.033 84.549 176.525L92.1955 184.162C92.4928 184.46 92.8923 184.627 93.3104 184.627H132.007C132.713 184.627 133.066 183.772 132.565 183.28L124.918 175.643Z" fill="white"/>
</svg>
