<svg width="372" height="360" viewBox="0 0 372 360" fill="none" xmlns="http://www.w3.org/2000/svg">
<path d="M251.698 186.881C249 172.939 242.904 161.806 240.406 157.694C234.21 147.463 219.021 128.506 201.133 122.187C201.333 120.783 201.433 119.278 201.433 117.573L201.133 108.345C201.033 102.929 194.738 101.525 192.639 101.023C189.242 100.221 185.144 99.9198 181.047 100.02C176.95 100.12 172.653 100.923 169.056 102.427C167.157 103.23 161.461 105.537 161.561 110.652V111.053C161.761 113.26 162.36 119.78 163.36 123.892C160.162 125.196 156.165 128.105 151.268 132.618C144.573 138.737 138.277 146.259 133.48 153.682C125.886 165.317 121.089 177.955 119.59 189.991C117.691 204.434 120.389 218.075 127.384 230.513C134.979 243.853 150.968 259.901 184.345 260.001H184.545C194.238 260.001 225.916 257.895 243.604 231.516C252.198 218.577 254.896 203.632 251.698 186.881Z" fill="#0B4431"/>
<path d="M235.709 160.602C230.413 151.976 215.823 133.019 198.635 127.202C197.636 126.801 197.036 127.804 194.638 129.007C194.608 129.027 194.568 129.037 194.538 129.057C194.738 131.605 194.928 138.456 194.238 140.843C193.539 143.35 182.146 145.758 176.95 144.353C171.854 142.949 171.454 139.639 170.255 129.91C171.724 130.592 173.722 131.364 176.36 131.756C173.762 131.354 171.814 130.582 170.355 129.91C168.656 129.108 167.557 128.405 166.857 128.405C163.06 128.606 148.27 140.642 137.977 156.59C124.786 176.952 118.291 203.331 132.081 227.805C146.471 253.382 174.552 254.585 184.345 254.585C192.14 254.585 222.518 253.281 238.907 228.507C256.995 201.325 241.405 170.031 235.709 160.602Z" fill="#77BAA1"/>
<path d="M232.112 171.535C232.112 173.943 211.726 181.164 186.543 181.164C161.361 181.164 141.834 177.122 141.015 174.695C140.325 176.42 133.66 193.602 135.179 206.641C136.678 219.881 145.572 239.54 167.357 244.354C189.142 249.169 203.232 243.552 215.323 238.136C227.315 232.719 235.609 221.385 236.809 210.653C238.008 199.921 238.108 184.274 232.112 171.535Z" fill="#F3ACBB"/>
<path d="M188.692 130.973C186.713 132.197 184.115 133.15 180.947 132.819C179.528 132.658 178.239 132.317 177.07 131.856C174.062 131.505 171.854 130.652 170.255 129.91C171.454 139.639 171.854 142.949 176.95 144.353C182.146 145.758 193.539 143.35 194.238 140.843C194.938 138.436 194.738 131.515 194.538 129.007C193.259 129.679 191.43 130.381 188.692 130.973Z" fill="#89B772"/>
<path d="M167.157 232.92C166.557 231.516 166.457 230.011 166.657 228.507C167.357 223.09 171.154 208.747 190.84 197.915C215.523 184.274 228.514 195.808 228.514 195.808C228.514 195.808 236.309 202.729 230.413 219.179C224.517 235.528 195.637 241.546 195.637 241.546C195.637 241.546 172.653 246.862 167.157 232.92Z" fill="#F08FA2"/>
<path d="M143.373 202.93C141.774 202.93 141.675 196.611 143.673 193.802C146.871 189.289 152.367 193.501 152.367 193.501C152.367 193.501 147.57 202.93 143.373 202.93Z" fill="#F08FA2"/>
<path d="M232.112 171.535C232.112 169.128 211.726 167.222 186.543 167.222C161.361 167.222 140.975 172.137 140.975 174.544C140.975 176.952 161.361 181.164 186.543 181.164C211.726 181.164 232.112 173.943 232.112 171.535Z" fill="#F8D0D9"/>
<path d="M195.937 117.773C195.737 111.555 195.637 108.546 195.637 108.546C195.637 110.05 189.242 113.962 181.347 114.163C173.552 114.363 166.857 112.056 166.857 110.552C166.857 110.552 168.556 121.083 169.255 124.093C169.855 126.6 173.752 132.016 180.947 132.819C188.642 133.621 193.039 126.901 193.039 126.901C193.039 126.901 196.137 123.992 195.937 117.773Z" fill="#DD8843"/>
<path d="M195.637 108.546C195.637 107.041 188.942 105.236 181.147 105.436C173.253 105.637 166.757 109.047 166.857 110.552C166.857 112.056 173.552 114.363 181.347 114.163C189.242 113.962 195.637 110.05 195.637 108.546Z" fill="#EBB646"/>
<path d="M144.772 177.453C143.973 177.252 143.373 176.751 142.874 176.049C141.475 173.842 139.476 168.025 147.471 156.891C157.863 142.247 163.459 147.162 163.459 147.162C163.459 147.162 170.355 150.672 162.86 163.01C162.76 163.11 162.76 163.21 162.66 163.311C161.96 165.016 154.566 180.161 144.772 177.453Z" fill="white"/>
<path d="M218.921 236.531C217.222 236.23 216.123 234.725 216.423 233.02C216.822 230.914 218.022 227.704 221.519 224.595C226.915 219.78 230.813 224.093 231.712 225.297C231.912 225.598 232.012 225.899 232.112 226.2C232.312 227.203 232.212 229.209 229.514 232.218C226.416 235.628 222.618 237.233 218.921 236.531Z" fill="white"/>
<path d="M243.904 192.097C244.903 194.705 237.508 184.976 236.509 184.875C235.01 184.675 227.415 203.13 225.516 203.632C223.118 204.234 203.632 189.991 199.434 190.392C191.94 190.894 176.55 213.562 174.552 213.963C172.153 214.364 154.965 193.702 148.77 192.9C146.671 192.599 132.181 210.252 130.982 208.948C130.382 208.346 128.983 194.304 129.183 190.392C129.383 187.884 131.082 200.222 131.781 200.222C132.981 200.322 146.271 186.982 149.069 187.182C151.568 187.383 171.254 204.936 173.153 204.535C175.051 204.133 194.138 185.277 198.235 184.675C201.433 184.274 218.421 196.611 223.018 195.808C225.816 195.407 234.41 180.161 235.909 179.76C237.208 179.66 242.804 189.289 243.904 192.097Z" fill="#A5D4C1"/>
</svg>
