<svg width="372" height="360" viewBox="0 0 372 360" fill="none" xmlns="http://www.w3.org/2000/svg">
<path d="M105.07 132.426L132.551 164.569L150.871 153.744C150.871 153.744 128.72 124.098 122.724 126.097C117.228 128.262 105.07 132.426 105.07 132.426Z" fill="white"/>
<path d="M278.614 187.886H283.444V170.066H286.608C287.608 170.066 287.941 170.066 288.774 169.732C289.107 169.399 289.44 168.733 289.44 168.067V167.068C289.44 166.735 289.44 166.402 289.107 166.068H273.451V170.066H278.614V187.886Z" fill="white"/>
<path d="M270.287 165.902H268.621C267.622 165.902 266.956 166.235 266.456 166.568C266.123 166.901 265.79 167.567 265.79 169.066V179.892C265.79 180.203 265.79 180.531 265.8 180.864C265.686 180.611 265.571 180.344 265.457 180.059C265.124 179.392 264.791 178.393 264.457 177.227L259.294 165.402L259.088 165.573L259.128 165.402H254.631C253.965 165.402 253.632 165.402 253.299 165.735V187.886H257.796V174.229C257.796 173.23 257.796 172.064 257.462 171.065H257.668L257.962 171.398C258.139 171.752 258.222 172.106 258.311 172.484C258.389 172.819 258.472 173.173 258.628 173.563C258.85 174.007 259.072 174.599 259.294 175.192C259.405 175.488 259.517 175.784 259.628 176.061L264.635 187.531L264.457 188.219H268.954C269.62 188.219 269.954 188.219 270.287 187.886V165.902Z" fill="white"/>
<path fill-rule="evenodd" clip-rule="evenodd" d="M235.645 187.886L237.013 183.389H245.131L245.804 185.721C246.137 186.72 246.47 187.387 246.803 187.886C247.136 188.219 247.803 188.553 248.469 188.553H249.801C250.191 188.553 250.467 188.438 250.696 188.344C250.858 188.277 250.996 188.219 251.134 188.219L244.139 166.568H238.642L230.815 187.553C231.148 187.886 231.481 187.886 232.147 187.886H235.645ZM238.179 179.559H244.026L243.306 177.061C242.973 176.061 242.64 175.062 242.14 173.896C241.807 172.564 241.474 171.398 241.141 170.399H240.808C240.808 170.838 240.715 171.231 240.627 171.603C240.549 171.935 240.474 172.249 240.474 172.564C240.318 172.954 240.235 173.308 240.157 173.643C240.068 174.021 239.985 174.375 239.808 174.729C239.719 174.907 239.63 175.062 239.547 175.205C239.321 175.597 239.142 175.907 239.142 176.394L238.179 179.559Z" fill="white"/>
<path d="M228.65 165.902H223.82V179.892C223.82 181.224 223.486 182.723 223.153 183.389C222.487 184.056 221.821 184.389 220.322 184.389C218.99 184.389 217.824 184.056 217.491 183.389C216.825 182.723 216.825 181.724 216.825 179.892V168.733C216.825 167.861 216.571 167.242 216.285 166.545L216.284 166.545C216.243 166.443 216.201 166.341 216.158 166.235C215.825 165.902 215.159 165.569 213.993 165.569H212.328L211.995 165.902V179.892C211.995 181.557 212.328 183.389 212.994 184.389C213.66 185.721 214.659 186.554 215.825 187.22C217.158 187.886 218.657 188.219 220.322 188.219C221.988 188.219 223.82 187.886 224.819 187.22C226.151 186.554 227.317 185.555 227.65 184.389C228.316 183.056 228.65 181.557 228.65 179.892V165.902Z" fill="white"/>
<path d="M158.033 136.589C155.868 146.416 151.704 153.744 151.704 153.744L170.796 165.863C170.691 165.879 170.691 165.902 170.691 165.902L172.356 187.886L180.351 186.887C180.351 186.887 182.516 186.221 182.016 182.39C181.683 178.226 181.017 169.399 181.017 169.399C181.017 169.399 181.35 167.234 176.52 166.568C172.535 165.885 171.274 165.824 170.875 165.855C178.82 144.904 158.033 136.589 158.033 136.589Z" fill="white"/>
<path d="M156.534 200.877L172.522 187.886C175.898 190.297 176.946 198.757 177.465 202.938L177.519 203.375C177.762 206.166 176.678 207.454 174.204 210.395C173.283 211.491 172.168 212.816 170.857 214.534C165.527 220.863 163.862 215.2 163.862 215.2L156.534 200.877Z" fill="white"/>
<path d="M156.201 200.877L134.217 191.051L115.064 229.857C115.064 229.857 113.731 232.688 118.561 233.021C119.101 233.095 119.679 233.184 120.288 233.278C125.129 234.022 131.85 235.054 135.549 231.356C139.88 227.358 156.201 200.877 156.201 200.877Z" fill="white"/>
<path d="M132.052 164.903L134.217 190.718C133.551 192.05 95.7442 192.05 89.4153 191.883C83.253 191.55 83.5861 188.386 83.5861 188.386C83.5861 188.386 82.9199 180.725 82.5868 173.73C82.2537 168.4 85.085 168.067 85.085 168.067L132.052 164.903Z" fill="white"/>
<path d="M208.164 176.728C208.164 175.062 207.831 173.563 207.498 172.231C207.165 170.898 206.498 169.732 205.832 168.733C205.218 167.812 204.32 167.173 203.27 166.427L203.269 166.426C203.18 166.363 203.091 166.299 203.001 166.235C202.002 165.569 200.503 165.569 198.837 165.569C196.672 165.569 195.007 165.902 193.674 166.901C192.342 167.9 191.176 169.399 190.51 170.732C189.844 172.397 189.51 174.562 189.51 176.728C189.51 178.393 189.844 179.892 190.177 181.224C190.51 182.557 191.176 183.723 191.842 184.722C192.456 185.643 193.354 186.282 194.404 187.028C194.493 187.091 194.583 187.155 194.673 187.22C195.673 187.886 197.172 187.886 198.837 187.886H200.17C199.503 186.887 198.504 185.388 197.671 184.056C197.338 184.056 197.005 183.723 196.672 183.389C196.006 183.056 195.673 182.39 195.34 181.724C195.166 181.377 195.083 180.94 194.996 180.483C194.916 180.062 194.833 179.625 194.673 179.226V173.563C194.673 172.691 194.927 172.072 195.213 171.375L195.214 171.375C195.255 171.273 195.297 171.17 195.34 171.065C195.673 170.399 196.006 169.732 196.672 169.399C197.338 169.066 198.004 168.733 199.17 168.733C200.043 168.733 200.661 168.987 201.358 169.273C201.46 169.315 201.563 169.357 201.669 169.399C202.335 169.732 202.668 170.399 203.001 171.065C203.174 171.412 203.258 171.849 203.344 172.306C203.424 172.727 203.507 173.164 203.667 173.563V179.226L206.498 185.055C207.165 184.389 207.498 183.723 207.831 182.557C207.831 181.994 207.89 181.314 207.959 180.526C208.053 179.449 208.164 178.171 208.164 176.728Z" fill="white"/>
<path d="M202.335 178.393L197.505 180.891C197.505 180.891 201.002 187.22 202.002 187.886C202.74 188.624 203.932 188.454 204.908 188.314C205.253 188.265 205.571 188.219 205.832 188.219C206.832 188.219 206.499 187.553 206.499 187.553L202.335 178.393Z" fill="white"/>
</svg>
