<svg width="372" height="360" viewBox="0 0 372 360" fill="none" xmlns="http://www.w3.org/2000/svg">
<path d="M146.978 164.565C144.566 164.565 142.242 164.867 141.295 165.123C139.918 165.51 139.574 166.112 139.315 167.36L133.848 192.555C133.76 193.07 133.676 193.501 133.676 193.931C133.676 195.179 134.494 195.994 135.828 195.994C137.293 195.994 137.896 195.048 138.196 193.585L139.746 186.406C140.821 186.534 142.242 186.665 144.266 186.665C153.18 186.665 158.731 181.85 158.731 174.583C158.731 168.218 154.295 164.565 146.978 164.565ZM144.051 182.537C142.673 182.537 141.595 182.493 140.608 182.365L143.492 168.992C144.395 168.864 145.732 168.69 147.109 168.69C151.846 168.69 154.257 170.927 154.257 174.624C154.254 179.354 150.808 182.537 144.051 182.537ZM289 189.498C289 190.53 287.925 192.122 286.46 193.41C284.951 194.746 282.974 195.863 280.734 195.863C276.86 195.863 275.051 193.326 275.051 189.844C275.051 188.468 275.266 187.136 275.438 186.318L277.032 178.924H275.266C273.976 178.924 273.373 178.281 273.373 177.42C273.373 175.872 274.276 175.011 275.826 175.011H277.85L278.84 170.452C279.143 168.989 279.787 168.044 281.208 168.044C282.542 168.044 283.361 168.905 283.361 170.109C283.361 170.54 283.277 171.014 283.189 171.529L282.414 175.011H286.897C288.188 175.011 288.747 175.654 288.747 176.515C288.747 178.062 287.841 178.924 286.335 178.924H281.555L279.962 186.406C279.746 187.479 279.575 188.468 279.575 189.285C279.575 190.749 280.178 191.651 281.296 191.651C282.542 191.651 283.533 190.749 285.126 189.114C286.029 188.125 286.504 187.694 287.235 187.694C288.225 187.694 289 188.512 289 189.498ZM188.004 168.477L182.624 193.454C182.321 194.917 181.678 195.863 180.212 195.863C178.922 195.863 178.06 195.048 178.06 193.8C178.06 193.37 178.147 192.939 178.275 192.424L183.655 167.445C183.958 165.981 184.602 165.036 186.023 165.036C187.357 165.036 188.22 165.853 188.22 167.101C188.22 167.532 188.091 167.959 188.004 168.477ZM265.063 174.58C258.174 174.58 253.482 181.417 253.482 187.91C253.482 188.031 253.485 188.153 253.488 188.271C252.407 189.91 251.026 191.607 250.08 191.607C249.393 191.607 249.133 190.961 249.133 189.972C249.133 188.768 249.477 186.746 249.864 184.983L253.438 168.471C253.526 167.956 253.61 167.526 253.61 167.095C253.61 165.847 252.792 165.03 251.458 165.03C249.992 165.03 249.393 165.975 249.09 167.438L247.153 176.381C246.119 175.307 244.61 174.574 242.329 174.574C237.755 174.574 233.154 178.09 231.36 183.485C229.386 188.583 227.621 191.601 226.227 191.601C225.712 191.601 225.409 191.17 225.409 190.44C225.409 188.29 226.615 183.045 227.13 180.509C227.302 179.563 227.39 179.176 227.39 178.618C227.39 176.727 224.247 174.49 220.157 174.49C215.427 174.49 211.144 177.482 208.998 181.925C205.808 187.554 202.881 191.601 201.431 191.601C200.785 191.601 200.569 190.783 200.397 190.009L199.326 184.084L205.911 178.711C206.514 178.197 207.289 177.463 207.289 176.518C207.289 175.357 206.514 174.583 205.352 174.583C204.49 174.583 203.759 175.098 203.028 175.7L193.127 183.869L196.442 168.477C196.53 167.963 196.658 167.532 196.658 167.101C196.658 165.853 195.795 165.036 194.461 165.036C193.04 165.036 192.396 165.981 192.093 167.445L186.714 192.424C186.586 192.939 186.498 193.37 186.498 193.8C186.498 195.048 187.36 195.863 188.651 195.863C190.116 195.863 190.759 194.917 191.062 193.454L191.753 190.231L195.799 186.964L196.789 191.95C197.176 193.928 198.21 195.863 200.878 195.863C203.546 195.863 205.624 193.441 207.717 190.168C208.351 193.598 210.794 195.863 214.184 195.863C217.574 195.863 219.91 193.841 221.416 191.133V191.22C221.416 194.016 222.838 195.863 225.334 195.863C227.593 195.863 229.467 194.502 231.142 191.613C232.091 194.131 234.216 195.863 237.171 195.863C240.658 195.863 243.154 193.757 244.747 190.833V191.092C244.747 194.187 246.297 195.866 248.837 195.866C251.08 195.866 252.985 194.565 254.613 192.449C255.85 194.565 258.068 195.866 261.064 195.866C267.953 195.866 272.645 189.03 272.645 182.493C272.642 177.891 269.843 174.58 265.063 174.58ZM222.144 183.31C220.895 188.683 218.227 191.738 215.212 191.738C213.187 191.738 212.069 190.19 212.069 187.869C212.069 183.31 215.384 178.409 219.817 178.409C221.151 178.409 222.185 178.796 223.088 179.354L222.144 183.31ZM246.122 181.033C244.744 187.354 241.601 191.738 238.158 191.738C236.265 191.738 235.144 190.275 235.144 187.869C235.144 183.27 238.33 178.496 242.591 178.496C244.228 178.496 245.475 179.055 246.381 179.785L246.122 181.033ZM261.577 191.738C259.08 191.738 258.046 189.931 258.046 187.654C258.046 183.482 260.93 178.711 264.548 178.711C267.044 178.711 268.078 180.518 268.078 182.796C268.078 187.008 265.194 191.738 261.577 191.738ZM169.45 174.58C162.561 174.58 157.869 181.417 157.869 187.91C157.869 192.552 160.668 195.863 165.445 195.863C172.333 195.863 177.026 189.027 177.026 182.49C177.026 177.891 174.227 174.58 169.45 174.58ZM165.963 191.738C163.467 191.738 162.433 189.931 162.433 187.654C162.433 183.482 165.317 178.711 168.934 178.711C171.431 178.711 172.465 180.518 172.465 182.796C172.462 187.008 169.578 191.738 165.963 191.738Z" fill="white"/>
<path d="M111.66 162.615C111.66 165.163 108.103 167.229 103.716 167.229C99.3278 167.229 95.771 165.163 95.771 162.615C95.771 160.066 99.3278 158 103.716 158C108.103 158 111.66 160.066 111.66 162.615ZM103.716 192.771C99.3278 192.771 95.771 194.837 95.771 197.385C95.771 199.934 99.3278 202 103.716 202C108.103 202 111.66 199.934 111.66 197.385C111.66 194.837 108.103 192.771 103.716 192.771ZM84.668 178.179C86.8795 179.455 90.4507 177.412 92.6444 173.617C94.8382 169.822 94.8241 165.712 92.6126 164.437C90.401 163.162 86.8298 165.205 84.6361 168.999C82.4424 172.794 82.4564 176.904 84.668 178.179ZM122.763 181.822C120.553 180.548 116.983 182.591 114.789 186.386C112.595 190.181 112.608 194.29 114.818 195.564C117.028 196.838 120.598 194.795 122.792 191C124.985 187.205 124.973 183.096 122.763 181.822ZM84.6689 181.821C82.4573 183.096 82.4433 187.206 84.637 191.001C86.8308 194.796 90.4019 196.838 92.6135 195.563C94.8251 194.288 94.8391 190.178 92.6454 186.383C90.4516 182.588 86.8805 180.545 84.6689 181.821ZM122.765 178.18C124.975 176.906 124.987 172.797 122.794 169.002C120.6 165.207 117.03 163.163 114.82 164.438C112.61 165.712 112.597 169.822 114.791 173.617C116.985 177.412 120.555 179.455 122.765 178.18Z" fill="#E6007A"/>
</svg>
