<svg width="372" height="360" viewBox="0 0 372 360" fill="none" xmlns="http://www.w3.org/2000/svg">
<path d="M125.384 184.682C122.524 196.196 110.862 203.22 99.3356 200.363C87.8045 197.506 80.7812 185.852 83.6361 174.338C86.4958 162.819 98.1578 155.801 109.689 158.657C109.708 158.657 109.728 158.667 109.747 158.672C121.244 161.553 128.238 173.188 125.384 184.682Z" fill="#F7931A"/>
<path d="M109.33 171.003L110.3 167.131L107.915 166.541L106.975 170.316C106.354 170.162 105.719 170.017 105.084 169.872L106.025 166.058L103.664 165.468L102.695 169.34L101.187 169.006L97.93 168.194L97.3047 170.713C97.3047 170.713 99.0496 171.114 99.0205 171.143C99.6894 171.225 100.174 171.815 100.121 172.487L97.4743 183.097C97.3289 183.551 96.8442 183.798 96.3935 183.653C96.3935 183.687 94.6728 183.227 94.6728 183.227L93.5046 185.915L96.5776 186.674L98.2596 187.109L97.2853 191.024L99.6458 191.614L100.615 187.742C101.25 187.916 101.875 188.076 102.491 188.226L101.536 192.112L103.897 192.697L104.871 188.791C108.904 189.55 111.918 189.245 113.198 185.61C114.226 182.681 113.145 180.999 111.027 179.897C112.573 179.539 113.717 178.553 114.046 176.431C114.468 173.57 112.292 172.032 109.34 171.013L109.33 171.003ZM108.656 183.977C107.929 186.901 103 185.32 101.4 184.924L102.699 179.733C104.299 180.134 109.417 180.922 108.661 183.977H108.656ZM109.388 176.383C108.715 179.07 104.619 177.693 103.286 177.364L104.464 172.666C105.772 172.99 110.062 173.603 109.369 176.383H109.388Z" fill="white"/>
<path d="M138.989 194.253C140.245 194.253 141.481 193.939 142.576 193.325C143.705 192.726 144.699 191.894 145.494 190.894C146.323 189.835 146.972 188.651 147.423 187.384C147.898 186.075 148.136 184.692 148.136 183.305C148.213 181.893 147.908 180.487 147.263 179.23C146.686 178.258 145.61 177.76 144.049 177.76C143.371 177.785 142.692 177.876 142.033 178.036C141.214 178.22 140.453 178.611 139.828 179.177L136.265 194.055L136.837 194.161C137.007 194.205 137.181 194.229 137.356 194.244C137.579 194.273 137.802 194.282 138.029 194.277L138.989 194.258V194.253ZM146.066 170.998C147.622 170.964 149.168 171.278 150.583 171.926C151.814 172.511 152.89 173.367 153.744 174.43C154.611 175.527 155.251 176.794 155.624 178.142C156.031 179.631 156.235 181.168 156.22 182.715C156.22 187.52 154.354 192.136 151.02 195.597C149.401 197.255 147.476 198.58 145.353 199.503C143.129 200.484 140.72 200.982 138.286 200.967H136.566C135.63 200.938 134.695 200.856 133.769 200.726C132.64 200.561 131.515 200.339 130.41 200.054C129.251 199.778 128.122 199.377 127.051 198.86L136.493 159.344L144.927 158L141.568 172.023C142.266 171.709 142.993 171.452 143.739 171.264C144.505 171.075 145.295 170.984 146.085 170.988H146.071V170.993L146.066 170.998Z" fill="white"/>
<path d="M168.857 168.117C167.756 168.127 166.685 167.774 165.803 167.116C164.872 166.377 164.368 165.226 164.46 164.042C164.46 163.303 164.615 162.573 164.926 161.901C165.221 161.248 165.638 160.654 166.157 160.156C166.675 159.668 167.272 159.271 167.926 158.986C168.605 158.696 169.336 158.546 170.078 158.551C171.169 158.551 172.23 158.904 173.103 159.556C174.033 160.296 174.537 161.446 174.445 162.631C174.45 163.37 174.295 164.105 173.99 164.777C173.694 165.43 173.277 166.019 172.768 166.517C172.254 167.01 171.653 167.407 170.999 167.687C170.32 167.977 169.588 168.127 168.847 168.117H168.861H168.857ZM164.94 200.204H156.875L163.69 171.602H171.799L164.935 200.204H164.94Z" fill="white"/>
<path d="M178.856 164.477L187.29 163.177L185.191 171.602H194.226L192.597 178.234H183.64L181.246 188.211C181.037 188.975 180.911 189.758 180.863 190.551C180.814 191.189 180.906 191.832 181.139 192.431C181.362 192.967 181.779 193.403 182.307 193.644C183.068 193.978 183.897 194.132 184.726 194.089C185.574 194.089 186.427 194.007 187.261 193.842C188.099 193.678 188.928 193.456 189.733 193.171L190.339 199.372C189.18 199.788 187.998 200.131 186.795 200.397C185.312 200.711 183.795 200.856 182.278 200.832C179.772 200.832 177.838 200.455 176.452 199.715C175.158 199.058 174.12 197.985 173.51 196.665C172.914 195.268 172.652 193.751 172.749 192.233C172.841 190.454 173.093 188.69 173.51 186.954L178.851 164.443V164.472L178.856 164.477Z" fill="white"/>
<path d="M193.93 188.781C193.916 186.408 194.318 184.049 195.128 181.821C195.884 179.708 197.052 177.77 198.554 176.107C200.071 174.459 201.913 173.144 203.969 172.255C206.208 171.288 208.631 170.805 211.069 170.838C212.543 170.819 214.016 170.974 215.451 171.303C216.658 171.588 217.836 171.999 218.96 172.525L216.159 178.814C215.432 178.519 214.68 178.263 213.9 178.031C212.969 177.775 212.01 177.654 211.045 177.673C208.607 177.586 206.266 178.616 204.681 180.467C203.111 182.314 202.321 184.798 202.316 187.921C202.243 189.502 202.66 191.068 203.513 192.407C204.308 193.548 205.781 194.118 207.919 194.118C208.946 194.118 209.969 194.007 210.972 193.789C211.864 193.601 212.742 193.325 213.585 192.977L214.181 199.45C213.081 199.865 211.961 200.218 210.822 200.508C209.378 200.832 207.895 200.987 206.411 200.967C204.444 201.025 202.485 200.692 200.643 199.991C199.18 199.401 197.866 198.502 196.785 197.352C195.762 196.24 195.006 194.906 194.575 193.456C194.119 191.933 193.892 190.348 193.901 188.757L193.921 188.786L193.93 188.781Z" fill="white"/>
<path d="M233.72 177.698C232.581 177.683 231.471 178.041 230.559 178.727C229.638 179.443 228.863 180.327 228.281 181.337C227.641 182.411 227.162 183.575 226.856 184.789C226.561 185.954 226.405 187.148 226.401 188.346C226.328 189.811 226.628 191.271 227.268 192.59C227.855 193.606 228.902 194.113 230.428 194.113C231.568 194.132 232.682 193.77 233.589 193.079C234.514 192.363 235.29 191.479 235.872 190.468C236.502 189.391 236.972 188.23 237.263 187.017C237.554 185.852 237.709 184.653 237.718 183.45C237.796 181.985 237.495 180.525 236.851 179.206C236.264 178.2 235.212 177.688 233.691 177.688H233.72V177.698ZM229.687 200.967C227.976 201.006 226.27 200.711 224.675 200.092C223.332 199.561 222.13 198.725 221.166 197.647C220.221 196.559 219.508 195.293 219.067 193.92C218.592 192.383 218.364 190.778 218.393 189.168C218.398 186.949 218.752 184.75 219.45 182.643C220.124 180.521 221.175 178.544 222.552 176.794C223.933 175.049 225.654 173.594 227.612 172.525C229.716 171.394 232.076 170.824 234.466 170.867C236.167 170.838 237.859 171.133 239.454 171.742C240.801 172.264 242.008 173.091 242.982 174.154C243.923 175.242 244.635 176.509 245.071 177.881C245.551 179.423 245.779 181.028 245.745 182.643C245.74 184.856 245.391 187.061 244.718 189.168C244.053 191.29 243.021 193.277 241.669 195.041C240.307 196.796 238.591 198.246 236.637 199.305C234.5 200.441 232.11 201.016 229.687 200.967Z" fill="white"/>
<path d="M258.483 168.117C257.388 168.127 256.316 167.779 255.439 167.116C254.504 166.377 254 165.226 254.097 164.042C254.097 163.303 254.252 162.573 254.557 161.901C254.848 161.248 255.25 160.659 255.754 160.156C256.273 159.668 256.874 159.271 257.528 158.986C258.207 158.696 258.934 158.546 259.671 158.551C260.771 158.541 261.842 158.894 262.724 159.556C263.655 160.296 264.159 161.446 264.067 162.631C264.067 163.375 263.907 164.105 263.597 164.777C263.306 165.43 262.894 166.019 262.38 166.517C261.866 167.01 261.265 167.407 260.611 167.687C259.937 167.977 259.21 168.122 258.478 168.117H258.483ZM254.572 200.204H246.506L253.306 171.602H261.425L254.572 200.204Z" fill="white"/>
<path d="M267.232 172.903C267.843 172.728 268.521 172.511 269.248 172.279C269.975 172.042 270.819 171.829 271.754 171.607C272.777 171.39 273.814 171.225 274.852 171.119C276.146 170.984 277.445 170.916 278.744 170.926C282.99 170.926 285.922 172.158 287.536 174.623C288.501 176.102 288.99 177.901 289 180.032V180.187C288.99 181.569 288.787 183.092 288.38 184.745L284.676 200.184H276.587L280.183 185.064C280.397 184.127 280.576 183.213 280.702 182.319C280.842 181.545 280.842 180.753 280.702 179.984C280.566 179.336 280.212 178.761 279.694 178.35C278.976 177.881 278.123 177.659 277.265 177.727C276.189 177.727 275.113 177.838 274.061 178.055L268.778 200.208H260.64L267.232 172.903Z" fill="white"/>
</svg>
