<svg width="372" height="360" viewBox="0 0 372 360" fill="none" xmlns="http://www.w3.org/2000/svg">
<path d="M149.826 179.466C149.484 185.403 154.054 190.485 159.99 190.827C160.204 190.827 160.417 190.827 160.631 190.827C166.61 190.827 171.436 186.001 171.394 180.021C171.394 174.042 166.568 169.216 160.588 169.259C154.865 169.259 150.125 173.743 149.826 179.466Z" fill="white"/>
<path d="M109.594 176.69C107.672 176.562 106.006 178.057 105.921 179.979C105.835 181.901 107.287 183.566 109.209 183.652C111.131 183.78 112.754 182.285 112.882 180.363C113.01 178.441 111.515 176.818 109.594 176.69Z" fill="white"/>
<path d="M149.142 116.854C150.851 116 151.534 113.865 150.68 112.156C149.826 110.448 147.69 109.765 145.982 110.619C144.273 111.473 143.59 113.566 144.444 115.274C145.298 117.025 147.391 117.751 149.142 116.854Z" fill="white"/>
<path d="M160.076 135.945C162.724 134.621 163.792 131.376 162.468 128.728C161.144 126.08 157.898 125.012 155.25 126.336C152.602 127.66 151.534 130.906 152.858 133.554C154.182 136.202 157.428 137.269 160.076 135.945Z" fill="white"/>
<path d="M123.261 149.057C125.311 150.381 128.044 149.826 129.411 147.776C130.735 145.726 130.179 142.992 128.129 141.626C126.079 140.302 123.346 140.857 121.979 142.907C120.613 144.957 121.21 147.733 123.261 149.057Z" fill="white"/>
<path d="M129.795 174.768C126.805 174.597 124.286 176.861 124.115 179.851C123.944 182.84 126.207 185.36 129.197 185.531C132.187 185.702 134.707 183.438 134.877 180.448C135.048 177.502 132.785 174.939 129.795 174.768Z" fill="white"/>
<path d="M123.858 210.943C121.68 212.053 120.783 214.701 121.894 216.922C123.004 219.1 125.652 219.997 127.873 218.887C130.051 217.776 130.948 215.128 129.838 212.907C128.727 210.729 126.037 209.832 123.858 210.943Z" fill="white"/>
<path d="M144.786 163.621C147.733 165.543 151.662 164.731 153.541 161.785C155.463 158.838 154.652 154.908 151.705 153.029C148.758 151.107 144.829 151.919 142.949 154.866C141.028 157.77 141.839 161.699 144.786 163.621Z" fill="white"/>
<path d="M211.199 135.518C213.676 137.141 217.05 136.458 218.673 133.981C220.296 131.504 219.612 128.13 217.135 126.507C214.658 124.884 211.284 125.567 209.661 128.044C207.996 130.564 208.679 133.895 211.199 135.518Z" fill="white"/>
<path d="M222.218 116.513C223.841 117.581 225.976 117.111 227.044 115.488C228.112 113.865 227.642 111.729 226.019 110.662C224.396 109.594 222.26 110.064 221.193 111.644C220.168 113.267 220.637 115.445 222.218 116.513Z" fill="white"/>
<path d="M212.01 169.173C206.074 168.832 200.949 173.401 200.65 179.338C200.308 185.275 204.878 190.4 210.814 190.699C211.028 190.699 211.241 190.699 211.412 190.699C217.349 190.699 222.175 185.873 222.175 179.893C222.218 174.213 217.733 169.472 212.01 169.173Z" fill="white"/>
<path d="M163.621 162.852C165.457 166.483 169.173 168.789 173.273 168.789C179.21 168.789 184.036 163.963 184.036 157.983C184.036 156.318 183.651 154.652 182.883 153.115C180.192 147.776 173.7 145.64 168.404 148.331C163.065 151.064 160.93 157.556 163.621 162.852Z" fill="white"/>
<path d="M248.142 149.057C250.32 147.947 251.175 145.256 250.064 143.078C248.954 140.9 246.263 140.046 244.085 141.156C241.907 142.266 241.052 144.914 242.12 147.093C243.273 149.271 245.921 150.168 248.142 149.057Z" fill="white"/>
<path d="M220.808 152.474C217.691 154.054 216.409 157.855 217.989 160.973C219.57 164.091 223.371 165.372 226.489 163.792C229.606 162.212 230.888 158.41 229.307 155.293C227.727 152.175 223.926 150.936 220.808 152.474Z" fill="white"/>
<path d="M185.573 114.89C188.008 115.018 190.1 113.139 190.271 110.704C190.442 108.27 188.52 106.177 186.086 106.006C183.651 105.878 181.559 107.715 181.388 110.149C181.26 112.626 183.139 114.719 185.573 114.89Z" fill="white"/>
<path d="M185.53 142.779C189.033 142.992 192.022 140.302 192.193 136.8C192.407 133.297 189.716 130.308 186.214 130.137C182.712 129.923 179.722 132.614 179.551 136.116C179.38 139.618 182.028 142.608 185.53 142.779Z" fill="white"/>
<path d="M151.192 207.526C154.31 205.946 155.591 202.145 154.011 199.027C152.431 195.909 148.63 194.628 145.512 196.208C142.394 197.788 141.113 201.589 142.693 204.707C144.273 207.825 148.075 209.106 151.192 207.526Z" fill="white"/>
<path d="M189.631 152.047C186.385 157.044 187.751 163.706 192.748 166.952C197.745 170.198 204.408 168.832 207.654 163.835C210.9 158.838 209.533 152.175 204.536 148.929C202.785 147.776 200.735 147.178 198.642 147.178C195.012 147.178 191.638 149.014 189.631 152.047Z" fill="white"/>
<path d="M208.38 197.148C205.689 191.809 199.197 189.674 193.901 192.364C188.563 195.055 186.427 201.547 189.118 206.843C191.809 212.181 198.301 214.317 203.596 211.626C208.892 208.978 211.071 202.572 208.423 197.233C208.423 197.19 208.423 197.19 208.38 197.148Z" fill="white"/>
<path d="M227.215 196.379C224.268 194.457 220.339 195.269 218.459 198.215C216.537 201.162 217.349 205.092 220.296 206.971C223.243 208.893 227.172 208.081 229.051 205.134C230.973 202.23 230.162 198.301 227.215 196.379Z" fill="white"/>
<path d="M247.886 180.192C248.057 177.203 245.793 174.683 242.804 174.512C239.814 174.341 237.294 176.605 237.123 179.594C236.952 182.584 239.216 185.104 242.206 185.275C245.153 185.445 247.715 183.139 247.886 180.192Z" fill="white"/>
<path d="M262.791 176.348C260.87 176.22 259.204 177.715 259.119 179.637C259.033 181.559 260.485 183.225 262.407 183.31C264.329 183.438 265.952 181.943 266.08 180.021C266.166 178.099 264.713 176.477 262.791 176.348Z" fill="white"/>
<path d="M248.74 210.943C246.69 209.619 243.957 210.174 242.59 212.224C241.266 214.274 241.821 217.008 243.871 218.374C245.921 219.698 248.655 219.143 250.021 217.093C251.388 215.043 250.79 212.267 248.74 210.943Z" fill="white"/>
<path d="M149.74 243.487C148.117 242.419 145.982 242.889 144.914 244.47C143.846 246.092 144.316 248.228 145.896 249.296C147.519 250.363 149.655 249.894 150.723 248.313C151.833 246.733 151.363 244.555 149.74 243.487Z" fill="white"/>
<path d="M222.858 243.146C221.15 244 220.467 246.135 221.321 247.844C222.175 249.552 224.31 250.235 226.019 249.381C227.727 248.527 228.411 246.434 227.556 244.726C226.702 242.975 224.609 242.249 222.858 243.146Z" fill="white"/>
<path d="M182.37 207.953C185.616 202.956 184.249 196.294 179.252 193.005C174.255 189.759 167.593 191.126 164.304 196.123C161.015 201.12 162.425 207.782 167.422 211.071C169.173 212.224 171.223 212.822 173.316 212.822C176.989 212.865 180.363 211.028 182.37 207.953Z" fill="white"/>
<path d="M160.802 224.482C158.325 222.859 154.951 223.542 153.328 226.019C151.705 228.496 152.388 231.87 154.865 233.493C157.342 235.116 160.716 234.433 162.339 231.956C164.005 229.479 163.322 226.105 160.802 224.482Z" fill="white"/>
<path d="M185.958 245.11C183.523 244.982 181.43 246.861 181.26 249.296C181.089 251.73 183.011 253.823 185.445 253.994C187.88 254.122 189.972 252.285 190.143 249.851C190.271 247.374 188.392 245.281 185.958 245.11Z" fill="white"/>
<path d="M186 217.221C182.498 217.008 179.509 219.698 179.338 223.2C179.124 226.703 181.815 229.692 185.317 229.863C188.819 230.034 191.809 227.386 191.98 223.884C192.193 220.424 189.502 217.392 186 217.221Z" fill="white"/>
<path d="M211.925 224.055C209.277 225.421 208.209 228.667 209.576 231.315C210.942 233.963 214.188 235.031 216.836 233.664C219.484 232.34 220.552 229.094 219.228 226.446C217.861 223.798 214.615 222.688 211.925 224.055Z" fill="white"/>
</svg>
