<svg width="372" height="360" viewBox="0 0 372 360" fill="none" xmlns="http://www.w3.org/2000/svg">
<path d="M146.218 182.66H156.072V184.352C154.174 184.512 154.106 185.152 154.106 186.707V191.806C151.819 193.223 148.618 194.206 144.755 194.206C136.729 194.206 132.294 188.971 132.294 182.637C132.294 174.978 137.941 170.177 145.006 170.177C148.893 170.177 151.659 171.229 153.397 172.486L153.511 177.722H151.339C150.15 174.086 148.161 172.303 144.572 172.303C139.473 172.303 137.575 176.67 137.575 181.517C137.575 187.187 139.999 191.966 145.326 191.966C147.201 191.966 148.344 191.6 149.282 190.822V186.684C149.282 184.832 148.504 184.421 146.241 184.329V182.637L146.218 182.66ZM175.826 185.472C175.826 190.822 171.893 194.183 166.863 194.183C161.834 194.183 158.495 190.731 158.495 186.067C158.495 180.717 162.428 177.356 167.458 177.356C172.488 177.356 175.826 180.831 175.826 185.472ZM171.048 186.593C171.048 182.317 169.539 179.391 166.703 179.391C164.234 179.391 163.251 181.7 163.251 184.969C163.251 189.245 164.76 192.171 167.618 192.171C170.087 192.171 171.025 189.885 171.025 186.593H171.048ZM184.011 190.617V172.166L184.171 169.559H183.051L177.586 170.908V171.8L179.553 173.058V190.594C179.553 191.966 178.821 192.126 177.449 192.309V193.863H186.183V192.309C184.788 192.126 184.034 191.989 184.034 190.594L184.011 190.617ZM206.28 191.508H207.035V193.155L201.09 194.183H200.221L200.381 191.325C199.238 193.017 197.386 194.183 195.008 194.183C190.573 194.183 187.966 191.051 187.966 186.524C187.966 180.877 191.853 177.356 196.609 177.356C198.186 177.356 199.444 177.745 200.381 178.385V173.058L198.415 171.8V170.908L203.879 169.559H205L204.84 172.166V190.022C204.84 191.051 205.137 191.463 206.28 191.531V191.508ZM200.358 182.66C200.358 180.465 198.964 179.322 196.975 179.322C194.254 179.322 192.608 181.586 192.608 185.221C192.608 188.605 194.048 191.165 197.066 191.165C198.392 191.165 199.49 190.708 200.358 189.931V182.66ZM227.109 190.617V180.58L227.269 177.676H215.997V176.076C215.997 172.92 216.82 171.297 219.015 171.297C220.455 171.297 221.096 172.166 221.096 173.675V174.887H224.457C225.234 174.498 225.6 173.675 225.6 172.852C225.6 170.931 223.816 169.582 219.861 169.582C214.694 169.582 211.539 172.326 211.539 176.83V177.219L209.207 178.293V179.642H211.539V190.64C211.539 192.011 210.807 192.171 209.435 192.354V193.909H218.398V192.354C216.683 192.149 216.02 192.034 216.02 190.571V179.642H222.627V190.64C222.627 192.011 221.896 192.171 220.524 192.354V193.909H229.258V192.354C227.863 192.171 227.154 192.034 227.154 190.64L227.109 190.617ZM249.058 190.617V182.294C249.058 178.865 246.977 177.356 243.982 177.356C241.467 177.356 239.295 178.865 237.969 180.305L238.129 177.31H237.009L231.544 178.865V179.757L233.51 181.174V190.617C233.51 191.989 232.779 192.149 231.407 192.331V193.886H240.141V192.331C238.746 192.149 237.992 192.011 237.992 190.617V181.654C239.043 180.991 240.621 180.42 242.038 180.42C243.753 180.42 244.599 181.083 244.599 182.843V190.594C244.599 191.966 243.868 192.126 242.496 192.309V193.863H251.23V192.309C249.835 192.126 249.08 191.989 249.08 190.594L249.058 190.617ZM262.067 190.777C258.546 190.777 256.763 188.399 256.763 184.627C256.763 181.243 258.454 179.345 260.832 179.345C262.798 179.345 263.393 180.58 263.393 182.409V183.666H266.297C267.051 183.369 267.554 182.615 267.554 181.54C267.554 179.025 265.016 177.402 261.45 177.402C256.374 177.402 252.579 180.923 252.579 186.318C252.579 190.754 255.482 194.229 260.489 194.229C264.605 194.229 266.914 192.057 267.897 189.131L266.754 188.559C265.725 189.817 264.239 190.822 262.067 190.822V190.777ZM286.828 190.617V182.294C286.828 178.865 284.725 177.356 281.729 177.356C279.26 177.356 277.088 178.865 275.762 180.305V172.166L275.922 169.559H274.802L269.337 170.908V171.8L271.304 173.058V190.594C271.304 191.966 270.572 192.126 269.2 192.309V193.863H277.888V192.309C276.494 192.126 275.785 191.989 275.785 190.594V181.631C276.814 180.968 278.414 180.397 279.809 180.397C281.524 180.397 282.415 181.06 282.415 182.82V190.571C282.415 191.943 281.684 192.103 280.312 192.286V193.84H289V192.286C287.605 192.103 286.897 191.966 286.897 190.571L286.828 190.617ZM111.214 170.04C111.9 169.285 111.9 167.959 111.214 167.342C110.528 166.724 109.156 166.427 108.242 167.273C107.327 168.096 107.556 169.422 108.242 170.108C108.928 170.794 110.528 170.794 111.214 170.04ZM120.314 167.548C119.993 167.319 119.353 166.907 118.233 166.496C117.113 166.084 116.884 166.016 116.472 165.993C116.038 165.97 115.512 166.336 114.666 166.976C113.82 167.616 113.432 167.753 113.386 168.462C113.34 169.194 113.112 170.108 112.54 170.908C111.968 171.709 111.168 172.12 110.116 172.212C109.065 172.326 107.624 171.983 106.938 171.183C106.252 170.383 105.955 169.902 105.955 168.736C105.955 167.57 106.413 166.747 107.007 166.153C107.601 165.558 107.579 165.353 107.579 165.078C107.579 164.804 107.441 163.912 107.327 163.478C107.213 163.043 106.778 162.998 106.092 163.203C105.384 163.432 104.789 163.684 104.035 164.598C103.28 165.513 103.006 166.039 102.434 167.479C101.703 169.354 101.04 171.434 100.788 172.715C100.514 173.995 101.062 175.092 102.274 175.847C103.555 176.647 104.949 177.264 106.824 177.95C108.699 178.636 110.048 179.642 110.459 180.648C110.894 181.654 110.779 183.621 109.819 185.495C108.859 187.37 107.51 189.108 105.155 190.8C102.8 192.514 101.2 192.926 98.8676 193.452C96.5355 193.978 97.3129 195.304 98.1131 195.578C98.9133 195.852 100.674 196.104 103.029 196.013C105.384 195.898 107.739 195.327 110.505 193.932C113.294 192.537 116.015 190.137 117.456 186.936C118.896 183.735 119.468 179.208 117.799 176.373C116.815 174.727 116.335 174.315 116.015 173.286C115.695 172.235 115.901 171.457 116.495 170.726C116.838 170.314 117.616 169.88 118.324 169.377C118.873 168.988 119.559 168.576 120.039 168.256C120.519 167.936 120.679 167.776 120.359 167.548H120.314ZM106.138 187.805C107.647 186.135 108.402 184.466 108.699 183.529C108.996 182.569 109.042 181.311 108.242 180.671C107.464 180.077 107.053 179.894 105.338 179.254C103.509 178.591 102.914 178.408 101.565 177.356C100.308 176.35 100.377 176.121 99.5764 176.007C98.7761 175.893 98.1817 177.082 97.9073 177.676C97.7016 178.11 97.6787 178.911 98.2046 179.642C98.7304 180.374 99.2334 181.197 100.697 182.02C102.16 182.843 102.846 182.98 103.829 183.14C104.835 183.3 105.224 183.529 104.949 184.009C104.675 184.466 104.149 184.695 103.235 184.695C102.32 184.695 101.04 184.284 99.7593 183.529C98.8447 183.003 98.2046 182.409 97.7244 181.814C97.2672 181.243 96.9928 181.151 96.5584 181.151C96.124 181.151 95.781 181.426 95.278 182.157C94.775 182.912 94.3864 183.712 94.3406 184.169C94.2949 184.604 94.2492 185.107 95.0494 185.678C95.8496 186.273 96.5584 186.593 97.4501 186.753C98.3646 186.913 99.0505 187.187 98.3875 187.805C97.7244 188.399 96.9013 188.262 96.2612 188.102C95.621 187.942 94.6836 187.439 94.3406 187.21C93.9977 186.981 93.7462 186.799 93.4032 186.89C93.0603 186.981 92.8088 187.576 92.1229 188.742C91.437 189.908 90.7968 190.777 89.585 192.08C88.3733 193.383 87.5959 193.932 85.6754 195.121H85.6297C83.732 196.31 83.1833 196.653 83.0461 196.996C82.9089 197.339 83.0004 197.819 84.4179 198.024C85.8354 198.253 87.0243 198.299 89.082 196.881C91.1398 195.487 92.7631 194.115 94.8894 193.132C97.0157 192.126 97.6787 192.194 100.079 191.508C102.457 190.822 104.652 189.451 106.138 187.782V187.805ZM109.591 165.215C110.025 165.261 110.345 165.33 110.711 165.421C111.077 165.536 111.58 165.741 112.106 166.061C112.654 166.381 113.134 166.061 113.615 165.787C114.095 165.49 114.643 165.101 114.643 164.827C114.643 164.552 114.369 164.232 113.226 163.524C112.083 162.792 110.505 161.992 109.453 161.855C108.402 161.717 108.859 163.364 108.996 164.004C109.11 164.644 109.156 165.147 109.591 165.193V165.215Z" fill="white"/>
</svg>
