<svg width="372" height="360" viewBox="0 0 372 360" fill="none" xmlns="http://www.w3.org/2000/svg">
<path d="M146.218 182.638H156.072V184.316C154.174 184.475 154.106 185.11 154.106 186.652V191.708C151.819 193.114 148.618 194.089 144.755 194.089C136.729 194.089 132.294 188.897 132.294 182.616C132.294 175.02 137.941 170.258 145.006 170.258C148.893 170.258 151.659 171.301 153.397 172.548L153.511 177.741H151.339C150.15 174.135 148.161 172.367 144.572 172.367C139.473 172.367 137.575 176.698 137.575 181.505C137.575 187.128 139.999 191.867 145.326 191.867C147.201 191.867 148.344 191.504 149.281 190.733V186.629C149.281 184.793 148.504 184.384 146.241 184.294V182.616L146.218 182.638ZM175.826 185.427C175.826 190.733 171.893 194.066 166.863 194.066C161.834 194.066 158.495 190.643 158.495 186.017C158.495 180.711 162.428 177.378 167.458 177.378C172.488 177.378 175.826 180.824 175.826 185.427ZM171.047 186.538C171.047 182.298 169.539 179.396 166.703 179.396C164.234 179.396 163.251 181.686 163.251 184.929C163.251 189.169 164.76 192.071 167.618 192.071C170.087 192.071 171.025 189.804 171.025 186.538H171.047ZM184.011 190.529V172.231L184.171 169.646H183.051L177.586 170.984V171.868L179.553 173.115V190.507C179.553 191.867 178.821 192.026 177.449 192.207V193.749H186.183V192.207C184.788 192.026 184.034 191.89 184.034 190.507L184.011 190.529ZM206.28 191.414H207.035V193.046L201.09 194.066H200.221L200.381 191.232C199.238 192.91 197.386 194.066 195.008 194.066C190.573 194.066 187.966 190.96 187.966 186.47C187.966 180.87 191.853 177.378 196.609 177.378C198.186 177.378 199.444 177.763 200.381 178.398V173.115L198.415 171.868V170.984L203.879 169.646H205L204.84 172.231V189.94C204.84 190.96 205.137 191.368 206.28 191.436V191.414ZM200.358 182.638C200.358 180.462 198.964 179.328 196.975 179.328C194.254 179.328 192.608 181.573 192.608 185.178C192.608 188.534 194.048 191.073 197.066 191.073C198.392 191.073 199.49 190.62 200.358 189.849V182.638ZM227.109 190.529V180.575L227.269 177.695H215.997V176.108C215.997 172.979 216.82 171.369 219.015 171.369C220.455 171.369 221.096 172.231 221.096 173.727V174.929H224.457C225.234 174.544 225.6 173.727 225.6 172.911C225.6 171.006 223.816 169.669 219.861 169.669C214.694 169.669 211.539 172.39 211.539 176.856V177.242L209.207 178.308V179.645H211.539V190.552C211.539 191.912 210.807 192.071 209.435 192.252V193.794H218.398V192.252C216.683 192.048 216.02 191.935 216.02 190.484V179.645H222.627V190.552C222.627 191.912 221.896 192.071 220.524 192.252V193.794H229.258V192.252C227.863 192.071 227.154 191.935 227.154 190.552L227.109 190.529ZM249.058 190.529V182.276C249.058 178.874 246.977 177.378 243.982 177.378C241.467 177.378 239.295 178.874 237.969 180.303L238.129 177.333H237.009L231.544 178.874V179.759L233.51 181.165V190.529C233.51 191.89 232.779 192.048 231.407 192.23V193.772H240.141V192.23C238.746 192.048 237.992 191.912 237.992 190.529V181.641C239.043 180.983 240.621 180.416 242.038 180.416C243.753 180.416 244.599 181.074 244.599 182.82V190.507C244.599 191.867 243.868 192.026 242.496 192.207V193.749H251.23V192.207C249.835 192.026 249.08 191.89 249.08 190.507L249.058 190.529ZM262.067 190.688C258.546 190.688 256.763 188.33 256.763 184.588C256.763 181.233 258.454 179.351 260.832 179.351C262.798 179.351 263.393 180.575 263.393 182.389V183.636H266.297C267.051 183.341 267.554 182.593 267.554 181.527C267.554 179.033 265.016 177.423 261.45 177.423C256.374 177.423 252.579 180.915 252.579 186.266C252.579 190.665 255.482 194.112 260.489 194.112C264.605 194.112 266.914 191.958 267.897 189.055L266.754 188.488C265.725 189.736 264.239 190.733 262.067 190.733V190.688ZM286.828 190.529V182.276C286.828 178.874 284.725 177.378 281.729 177.378C279.26 177.378 277.088 178.874 275.762 180.303V172.231L275.922 169.646H274.802L269.337 170.984V171.868L271.304 173.115V190.507C271.304 191.867 270.572 192.026 269.2 192.207V193.749H277.888V192.207C276.494 192.026 275.785 191.89 275.785 190.507V181.618C276.814 180.961 278.414 180.394 279.809 180.394C281.524 180.394 282.415 181.051 282.415 182.797V190.484C282.415 191.844 281.684 192.003 280.312 192.184V193.726H289V192.184C287.605 192.003 286.897 191.867 286.897 190.484L286.828 190.529ZM111.214 170.122C111.9 169.374 111.9 168.059 111.214 167.446C110.528 166.834 109.156 166.54 108.242 167.378C107.327 168.195 107.556 169.51 108.242 170.19C108.928 170.87 110.528 170.87 111.214 170.122ZM120.314 167.651C119.993 167.424 119.353 167.016 118.233 166.608C117.113 166.199 116.884 166.131 116.472 166.109C116.038 166.086 115.512 166.449 114.666 167.084C113.82 167.719 113.432 167.855 113.386 168.558C113.34 169.283 113.112 170.19 112.54 170.984C111.968 171.777 111.168 172.185 110.116 172.276C109.065 172.39 107.624 172.049 106.938 171.256C106.252 170.462 105.955 169.986 105.955 168.83C105.955 167.673 106.413 166.857 107.007 166.267C107.601 165.678 107.579 165.474 107.579 165.202C107.579 164.93 107.441 164.045 107.327 163.614C107.213 163.184 106.778 163.138 106.092 163.342C105.384 163.569 104.789 163.819 104.035 164.726C103.28 165.633 103.006 166.154 102.434 167.583C101.703 169.442 101.04 171.505 100.788 172.775C100.514 174.045 101.062 175.133 102.274 175.881C103.555 176.675 104.949 177.287 106.824 177.967C108.699 178.648 110.048 179.645 110.459 180.643C110.894 181.641 110.779 183.591 109.819 185.45C108.859 187.309 107.51 189.033 105.155 190.711C102.8 192.411 101.2 192.819 98.8676 193.341C96.5355 193.862 97.3129 195.177 98.1131 195.45C98.9133 195.722 100.674 195.971 103.029 195.88C105.384 195.767 107.739 195.2 110.505 193.817C113.294 192.434 116.015 190.053 117.456 186.879C118.896 183.704 119.468 179.215 117.799 176.403C116.815 174.77 116.335 174.362 116.015 173.342C115.695 172.299 115.901 171.528 116.495 170.802C116.838 170.394 117.616 169.963 118.324 169.465C118.873 169.079 119.559 168.671 120.039 168.353C120.519 168.036 120.679 167.877 120.359 167.651H120.314ZM106.138 187.74C107.647 186.085 108.402 184.43 108.699 183.5C108.996 182.548 109.042 181.301 108.242 180.666C107.464 180.076 107.053 179.895 105.338 179.26C103.509 178.602 102.914 178.421 101.565 177.378C100.308 176.38 100.377 176.154 99.5764 176.04C98.7761 175.927 98.1817 177.106 97.9073 177.695C97.7016 178.126 97.6787 178.92 98.2046 179.645C98.7304 180.371 99.2334 181.187 100.697 182.004C102.16 182.82 102.846 182.956 103.829 183.115C104.835 183.273 105.224 183.5 104.949 183.976C104.675 184.43 104.149 184.656 103.235 184.656C102.32 184.656 101.04 184.248 99.7593 183.5C98.8447 182.979 98.2046 182.389 97.7244 181.799C97.2672 181.233 96.9928 181.142 96.5584 181.142C96.124 181.142 95.781 181.414 95.278 182.14C94.775 182.888 94.3864 183.681 94.3406 184.135C94.2949 184.566 94.2492 185.065 95.0494 185.631C95.8496 186.221 96.5584 186.538 97.4501 186.697C98.3646 186.856 99.0505 187.128 98.3875 187.74C97.7244 188.33 96.9013 188.194 96.2612 188.035C95.621 187.876 94.6836 187.377 94.3406 187.151C93.9977 186.924 93.7462 186.743 93.4032 186.833C93.0603 186.924 92.8088 187.513 92.1229 188.67C91.437 189.826 90.7968 190.688 89.585 191.98C88.3733 193.273 87.5959 193.817 85.6754 194.996H85.6297C83.732 196.175 83.1833 196.515 83.0461 196.855C82.9089 197.196 83.0004 197.672 84.4179 197.876C85.8354 198.102 87.0243 198.148 89.082 196.742C91.1398 195.359 92.7631 193.998 94.8894 193.023C97.0157 192.026 97.6787 192.094 100.079 191.414C102.457 190.733 104.652 189.373 106.138 187.718V187.74ZM109.591 165.338C110.025 165.383 110.345 165.451 110.711 165.542C111.077 165.655 111.58 165.859 112.106 166.177C112.654 166.494 113.134 166.177 113.615 165.905C114.095 165.61 114.643 165.224 114.643 164.952C114.643 164.68 114.369 164.363 113.226 163.66C112.083 162.934 110.505 162.141 109.453 162.005C108.402 161.869 108.859 163.501 108.996 164.136C109.11 164.771 109.156 165.27 109.591 165.315V165.338Z" fill="white"/>
</svg>
