<svg width="372" height="360" viewBox="0 0 372 360" fill="none" xmlns="http://www.w3.org/2000/svg">
<path d="M186 260C230.183 260 266 224.183 266 180C266 135.817 230.183 100 186 100C141.817 100 106 135.817 106 180C106 224.183 141.817 260 186 260Z" fill="#0AC18E"/>
<path d="M210.954 153.137C206.934 144.02 197.695 142.071 186.386 143.959L182.751 129.868L174.183 132.081L177.756 146.132C175.503 146.7 173.188 147.188 170.893 147.838L167.32 133.868L158.751 136.081L162.386 150.173C160.538 150.701 145.086 154.66 145.086 154.66L147.442 163.838C147.442 163.838 153.736 162.071 153.675 162.213C157.168 161.299 158.812 163.046 159.584 164.69L169.574 203.31C169.695 204.426 169.492 206.335 167.096 206.985C167.239 207.066 160.863 208.589 160.863 208.589L161.797 219.289C161.797 219.289 177.107 215.371 179.117 214.863L182.792 229.117L191.36 226.904L187.685 212.548C190.041 212 192.335 211.431 194.569 210.843L198.223 225.117L206.792 222.904L203.117 208.67C216.315 205.462 225.635 197.137 223.726 184.406C222.508 176.731 214.122 170.437 207.157 169.726C211.442 165.929 213.614 160.386 210.954 153.137ZM206.832 186.741C208.538 199.35 191.015 200.893 185.228 202.416L180.193 183.553C186 182.03 203.949 175.635 206.832 186.741ZM196.274 161.056C198.081 172.264 183.096 173.563 178.264 174.802L173.675 157.685C178.528 156.487 192.599 150.68 196.274 161.056Z" fill="white"/>
</svg>
