<svg width="372" height="360" viewBox="0 0 372 360" fill="none" xmlns="http://www.w3.org/2000/svg">
<path fill-rule="evenodd" clip-rule="evenodd" d="M186 100C230.186 100 266 135.814 266 180C266 224.186 230.186 260 186 260C141.814 260 106 224.186 106 180C106 135.814 141.814 100 186 100Z" fill="#F0B90B"/>
<path d="M149.968 180L150.026 201.154L168 211.731V224.115L139.506 207.404V173.814L149.968 180ZM149.968 158.846V171.173L139.5 164.981V152.654L149.968 146.462L160.487 152.654L149.968 158.846ZM175.506 152.654L185.974 146.462L196.494 152.654L185.974 158.846L175.506 152.654Z" fill="white"/>
<path d="M157.532 196.769V184.385L168 190.577V202.904L157.532 196.769ZM175.506 216.167L185.974 222.359L196.494 216.167V228.494L185.974 234.686L175.506 228.494V216.167ZM211.506 152.654L221.974 146.462L232.494 152.654V164.981L221.974 171.173V158.846L211.506 152.654ZM221.974 201.154L222.032 180L232.5 173.808V207.397L204.006 224.109V211.724L221.974 201.154Z" fill="white"/>
<path d="M214.468 196.769L204 202.904V190.577L214.468 184.385V196.769Z" fill="white"/>
<path d="M214.468 163.231L214.526 175.615L196.5 186.192V207.397L186.032 213.532L175.564 207.397V186.192L157.538 175.615V163.231L168.051 157.038L185.968 167.667L203.994 157.038L214.513 163.231H214.468ZM157.532 142.083L185.974 125.314L214.468 142.083L204 148.276L185.974 137.647L168 148.276L157.532 142.083Z" fill="white"/>
</svg>
