<svg width="372" height="360" viewBox="0 0 372 360" fill="none" xmlns="http://www.w3.org/2000/svg">
<path fill-rule="evenodd" clip-rule="evenodd" d="M249.75 131.75C237.625 116.25 219.875 106.375 200.25 106.375C162.25 106.375 134.375 141.75 134.375 180C134.375 206.625 152.125 226.625 171.75 226.625C173.625 226.625 175.375 226.5 177.25 226.125C164 216.5 155.625 199 155.625 180C155.625 149.75 176.125 126.125 200.25 126.125C226.625 126.125 244.875 152.25 244.875 180C244.75 200.5 237.5 220.875 224.625 235.875C213.375 249 198.875 257.25 182.875 259.875C182.875 259.875 184.25 260 186 260C230.125 260 266 224.125 266 180C266 161.875 260 145.125 249.75 131.75ZM237.625 180C237.625 153.375 219.875 133.375 200.25 133.375C198.375 133.375 196.625 133.5 194.75 133.875C208 143.5 216.375 161 216.375 180C216.375 210.25 195.875 233.875 171.75 233.875C145.375 233.875 127.125 207.75 127.125 180C127.25 159.5 134.5 139.125 147.375 124.125C158.625 111 173.125 102.75 189.125 100.125C189.125 100.125 187.75 100 186 100C141.875 100 106 135.875 106 180C106 198.125 112 214.875 122.25 228.25C134.375 243.75 152.125 253.5 171.75 253.5C209.75 253.625 237.625 218.25 237.625 180Z" fill="white"/>
</svg>
