<svg width="372" height="360" viewBox="0 0 372 360" fill="none" xmlns="http://www.w3.org/2000/svg">
<path d="M159.21 153.481L186.011 169.343L212.832 153.481L212.802 153.468L186.011 109L159.21 153.481Z" fill="white"/>
<path d="M147.501 248.694V238.484C147.501 234.117 144.804 229.986 140.116 229.986C137.248 229.986 134.765 231.655 133.395 234.117V215.109C133.388 214.895 133.3 214.692 133.149 214.541C132.998 214.39 132.795 214.302 132.582 214.295C132.367 214.298 132.162 214.385 132.01 214.537C131.858 214.689 131.771 214.894 131.768 215.109V248.694C131.766 248.814 131.791 248.933 131.841 249.042C131.892 249.151 131.966 249.247 132.059 249.323C132.151 249.399 132.26 249.453 132.376 249.481C132.493 249.51 132.614 249.511 132.731 249.486C132.917 249.448 133.083 249.345 133.2 249.196C133.318 249.048 133.379 248.862 133.374 248.673V241.01C133.374 240.982 133.361 240.868 133.348 240.74C133.33 240.574 133.309 240.385 133.309 240.325C133.01 235.894 135.129 231.591 140.074 231.591C143.927 231.591 145.875 235.037 145.875 238.484V248.694C145.873 248.802 145.893 248.908 145.933 249.008C145.973 249.107 146.033 249.197 146.109 249.273C146.185 249.349 146.275 249.409 146.375 249.449C146.474 249.49 146.581 249.509 146.688 249.508C146.901 249.501 147.104 249.413 147.255 249.262C147.406 249.111 147.494 248.908 147.501 248.694Z" fill="white"/>
<path d="M121.258 230.328C121.471 230.335 121.674 230.423 121.825 230.574C121.976 230.725 122.064 230.928 122.071 231.141C122.073 231.249 122.053 231.355 122.013 231.455C121.973 231.554 121.913 231.645 121.837 231.721C121.761 231.796 121.671 231.856 121.571 231.897C121.472 231.937 121.365 231.957 121.258 231.955H116.955V248.823C116.952 249.037 116.865 249.242 116.713 249.394C116.561 249.546 116.356 249.633 116.142 249.636C115.928 249.629 115.725 249.541 115.574 249.39C115.423 249.239 115.335 249.036 115.328 248.823V231.955H111.197C111.09 231.957 110.983 231.937 110.884 231.897C110.784 231.856 110.694 231.796 110.618 231.721C110.542 231.645 110.482 231.554 110.442 231.455C110.402 231.355 110.382 231.249 110.384 231.141C110.387 230.927 110.474 230.722 110.626 230.57C110.777 230.418 110.982 230.331 111.197 230.328H115.328V224.142C115.323 223.952 115.384 223.767 115.502 223.618C115.619 223.47 115.785 223.367 115.971 223.328C116.088 223.303 116.209 223.305 116.326 223.333C116.442 223.361 116.551 223.416 116.643 223.492C116.736 223.568 116.81 223.664 116.86 223.773C116.911 223.882 116.936 224 116.934 224.12V230.328H121.258Z" fill="white"/>
<path fill-rule="evenodd" clip-rule="evenodd" d="M101.8 239.896C101.796 240.115 101.705 240.322 101.549 240.474C101.393 240.626 101.183 240.711 100.965 240.71H84.9323C85.339 244.67 88.3144 248.288 92.5099 248.288C95.3783 248.288 97.4975 247.196 99.1029 244.905C99.2036 244.734 99.3647 244.606 99.5546 244.546C99.7446 244.487 99.9499 244.501 100.13 244.584C100.247 244.636 100.349 244.716 100.427 244.817C100.506 244.918 100.558 245.036 100.58 245.162C100.618 245.355 100.58 245.554 100.473 245.719C98.8674 248.523 95.6566 249.914 92.4885 249.914C87.0943 249.914 83.2412 245.098 83.2412 239.918C83.2412 234.738 87.0943 229.921 92.4885 229.921C97.8828 229.921 101.8 234.738 101.8 239.896ZM100.088 239.104C99.7451 235.144 96.7055 231.527 92.5099 231.527C88.3144 231.527 85.339 235.144 84.9323 239.104H100.088Z" fill="white"/>
<path fill-rule="evenodd" clip-rule="evenodd" d="M176.25 239.896C176.245 240.115 176.155 240.322 175.999 240.474C175.843 240.626 175.633 240.711 175.415 240.71H159.382C159.789 244.67 162.764 248.288 166.959 248.288C169.828 248.288 171.947 247.196 173.552 244.905C173.653 244.734 173.814 244.606 174.004 244.546C174.194 244.487 174.399 244.501 174.58 244.584C174.697 244.636 174.799 244.716 174.877 244.817C174.955 244.918 175.008 245.036 175.029 245.162C175.068 245.355 175.029 245.554 174.922 245.719C173.317 248.523 170.106 249.914 166.938 249.914C161.544 249.914 157.691 245.098 157.691 239.918C157.691 234.738 161.544 229.921 166.938 229.921C172.332 229.921 176.25 234.738 176.25 239.896ZM174.537 239.104C174.195 235.144 171.155 231.527 166.959 231.527C162.764 231.527 159.789 235.144 159.382 239.104H174.537Z" fill="white"/>
<path d="M195.911 231.393C195.944 231.291 195.954 231.184 195.943 231.077C195.943 230.606 195.472 230.328 195.086 230.307C192.325 230.307 189.692 232.426 188.365 234.673V231.12C188.367 231 188.342 230.881 188.292 230.773C188.241 230.664 188.167 230.568 188.074 230.492C187.982 230.415 187.873 230.361 187.757 230.333C187.64 230.305 187.519 230.303 187.402 230.328C187.216 230.367 187.05 230.469 186.933 230.618C186.815 230.767 186.754 230.952 186.76 231.141V248.63C186.757 248.75 186.783 248.869 186.833 248.978C186.883 249.086 186.957 249.182 187.05 249.259C187.143 249.335 187.251 249.389 187.368 249.417C187.484 249.446 187.606 249.447 187.723 249.422C187.908 249.383 188.074 249.281 188.192 249.132C188.309 248.983 188.37 248.798 188.365 248.609V240.945C188.365 236.472 190.484 232.618 195.193 231.934C195.3 231.931 195.405 231.906 195.502 231.861C195.599 231.815 195.686 231.75 195.756 231.67C195.826 231.589 195.879 231.495 195.911 231.393Z" fill="white"/>
<path fill-rule="evenodd" clip-rule="evenodd" d="M222.293 239.896C222.289 240.115 222.199 240.322 222.043 240.474C221.886 240.626 221.677 240.711 221.459 240.71H205.426C205.832 244.67 208.808 248.288 213.003 248.288C215.872 248.288 217.991 247.196 219.596 244.905C219.697 244.734 219.858 244.606 220.048 244.546C220.238 244.487 220.443 244.501 220.624 244.584C220.74 244.636 220.842 244.716 220.921 244.817C220.999 244.918 221.052 245.036 221.073 245.162C221.112 245.355 221.073 245.554 220.966 245.719C219.361 248.523 216.15 249.914 212.982 249.914C207.588 249.914 203.735 245.098 203.735 239.918C203.735 234.738 207.588 229.921 212.982 229.921C218.376 229.921 222.272 234.738 222.293 239.896ZM220.56 239.104C220.217 235.144 217.177 231.527 212.982 231.527C208.786 231.527 205.811 235.144 205.404 239.104H220.56Z" fill="white"/>
<path d="M248.173 248.801V231.27C248.178 231.09 248.124 230.913 248.02 230.766C247.916 230.62 247.766 230.511 247.595 230.456C247.475 230.423 247.349 230.417 247.227 230.439C247.105 230.462 246.99 230.513 246.89 230.587C246.791 230.662 246.71 230.758 246.654 230.869C246.598 230.98 246.568 231.103 246.567 231.227V237.777C246.567 243.343 245.304 248.395 239.91 248.395C236.057 248.395 234.109 244.948 234.109 241.502V231.227C234.109 231.011 234.023 230.804 233.871 230.652C233.718 230.499 233.511 230.414 233.296 230.414C233.08 230.414 232.873 230.499 232.721 230.652C232.568 230.804 232.482 231.011 232.482 231.227V241.502C232.482 245.869 235.115 250 239.889 250C242.864 250 245.219 248.095 246.546 245.462V248.801C246.544 248.909 246.564 249.015 246.604 249.115C246.616 249.143 246.629 249.171 246.644 249.198C246.659 249.225 246.675 249.251 246.693 249.277C246.719 249.313 246.748 249.348 246.78 249.38C246.856 249.456 246.947 249.516 247.046 249.556C247.145 249.597 247.252 249.616 247.359 249.615C247.573 249.608 247.776 249.52 247.927 249.369C248.078 249.218 248.166 249.015 248.173 248.801Z" fill="white"/>
<path d="M288.758 238.419V248.694C288.751 248.908 288.663 249.111 288.512 249.262C288.361 249.413 288.158 249.501 287.945 249.508C287.838 249.509 287.731 249.49 287.632 249.449C287.532 249.409 287.442 249.349 287.366 249.273C287.29 249.197 287.23 249.107 287.19 249.008C287.15 248.908 287.13 248.802 287.131 248.694V238.419C287.131 234.973 285.183 231.591 281.33 231.591C276.514 231.591 274.673 236.75 274.673 240.774V248.694C274.666 248.908 274.578 249.111 274.427 249.262C274.276 249.413 274.073 249.501 273.86 249.508C273.753 249.509 273.646 249.49 273.546 249.449C273.447 249.409 273.357 249.349 273.281 249.273C273.205 249.197 273.145 249.107 273.105 249.008C273.065 248.908 273.045 248.802 273.046 248.694V238.419C273.046 234.973 271.098 231.591 267.245 231.591C262.365 231.591 260.353 235.444 260.524 240.539C260.524 240.556 260.526 240.577 260.528 240.6C260.529 240.608 260.53 240.616 260.531 240.625C260.533 240.638 260.535 240.651 260.537 240.665C260.551 240.774 260.568 240.901 260.524 240.945V248.673C260.53 248.862 260.468 249.048 260.351 249.196C260.233 249.345 260.067 249.448 259.882 249.486C259.765 249.511 259.643 249.51 259.527 249.481C259.41 249.453 259.302 249.399 259.209 249.323C259.116 249.247 259.042 249.151 258.992 249.042C258.942 248.933 258.917 248.814 258.919 248.694V231.141C258.913 230.952 258.974 230.767 259.092 230.618C259.209 230.469 259.375 230.367 259.561 230.328C259.678 230.303 259.799 230.305 259.916 230.333C260.032 230.361 260.141 230.415 260.234 230.492C260.326 230.568 260.4 230.664 260.451 230.773C260.501 230.881 260.526 231 260.524 231.12V234.053C261.894 231.591 264.377 229.986 267.245 229.986C270.521 229.986 273.046 232.062 274.074 235.102C275.401 232.126 277.97 229.986 281.309 229.986C286.061 229.986 288.758 234.053 288.758 238.419Z" fill="white"/>
<path d="M159.21 158.576L186.011 196.336L212.832 158.576L186.011 174.416L159.21 158.576Z" fill="white"/>
</svg>
