<svg width="372" height="360" viewBox="0 0 372 360" fill="none" xmlns="http://www.w3.org/2000/svg">
<path d="M251.698 186.856C249 172.966 242.904 161.873 240.406 157.776C234.21 147.583 219.021 128.696 201.133 122.401C201.333 121.002 201.433 119.503 201.433 117.804L201.133 108.61C201.033 103.214 194.738 101.815 192.639 101.315C189.242 100.516 185.144 100.216 181.047 100.316C176.95 100.416 172.653 101.215 169.056 102.714C167.157 103.514 161.461 105.812 161.561 110.909V111.308C161.761 113.507 162.36 120.002 163.36 124.099C160.162 125.399 156.165 128.297 151.268 132.793C144.573 138.889 138.277 146.384 133.48 153.779C125.886 165.371 121.089 177.962 119.59 189.954C117.691 204.344 120.389 217.934 127.384 230.326C134.979 243.617 150.968 259.605 184.345 259.705H184.545C194.238 259.705 225.916 257.607 243.604 231.325C252.198 218.434 254.896 203.544 251.698 186.856Z" fill="#0B4431"/>
<path d="M235.709 160.674C230.413 152.08 215.823 133.193 198.635 127.397C197.636 126.997 197.036 127.997 194.638 129.196C194.608 129.216 194.568 129.226 194.538 129.246C194.738 131.784 194.928 138.609 194.238 140.988C193.539 143.486 182.146 145.884 176.95 144.485C171.854 143.086 171.454 139.789 170.255 130.095C171.724 130.775 173.722 131.544 176.36 131.934C173.762 131.534 171.814 130.765 170.355 130.095C168.656 129.296 167.557 128.596 166.857 128.596C163.06 128.796 148.27 140.788 137.977 156.677C124.786 176.963 118.291 203.245 132.081 227.628C146.471 253.11 174.552 254.309 184.345 254.309C192.14 254.309 222.518 253.01 238.907 228.327C256.995 201.246 241.405 170.068 235.709 160.674Z" fill="#77BAA1"/>
<path d="M232.112 171.566C232.112 173.965 211.726 181.16 186.543 181.16C161.361 181.16 141.834 177.133 141.015 174.714C140.325 176.433 133.66 193.551 135.179 206.542C136.678 219.733 145.572 239.32 167.357 244.116C189.142 248.913 203.232 243.317 215.323 237.92C227.315 232.524 235.609 221.232 236.809 210.539C238.008 199.847 238.108 184.258 232.112 171.566Z" fill="#F3ACBB"/>
<path d="M188.692 131.155C186.713 132.374 184.115 133.323 180.947 132.993C179.528 132.833 178.239 132.494 177.07 132.034C174.062 131.684 171.854 130.835 170.255 130.095C171.454 139.789 171.854 143.086 176.95 144.485C182.146 145.884 193.539 143.486 194.238 140.988C194.938 138.589 194.738 131.694 194.538 129.196C193.259 129.865 191.43 130.565 188.692 131.155Z" fill="#89B772"/>
<path d="M167.157 232.724C166.557 231.325 166.457 229.826 166.657 228.327C167.357 222.931 171.154 208.641 190.84 197.848C215.523 184.258 228.514 195.75 228.514 195.75C228.514 195.75 236.309 202.645 230.413 219.034C224.517 235.322 195.637 241.318 195.637 241.318C195.637 241.318 172.653 246.614 167.157 232.724Z" fill="#F08FA2"/>
<path d="M143.373 202.845C141.774 202.845 141.675 196.549 143.673 193.751C146.871 189.254 152.367 193.451 152.367 193.451C152.367 193.451 147.57 202.845 143.373 202.845Z" fill="#F08FA2"/>
<path d="M232.112 171.566C232.112 169.168 211.726 167.269 186.543 167.269C161.361 167.269 140.975 172.166 140.975 174.564C140.975 176.963 161.361 181.16 186.543 181.16C211.726 181.16 232.112 173.965 232.112 171.566Z" fill="#F8D0D9"/>
<path d="M195.937 118.004C195.737 111.808 195.637 108.81 195.637 108.81C195.637 110.309 189.242 114.206 181.347 114.406C173.552 114.606 166.857 112.308 166.857 110.809C166.857 110.809 168.556 121.301 169.255 124.299C169.855 126.798 173.752 132.194 180.947 132.993C188.642 133.793 193.039 127.097 193.039 127.097C193.039 127.097 196.137 124.199 195.937 118.004Z" fill="#DD8843"/>
<path d="M195.637 108.81C195.637 107.311 188.942 105.512 181.147 105.712C173.253 105.912 166.757 109.31 166.857 110.809C166.857 112.308 173.552 114.606 181.347 114.406C189.242 114.206 195.637 110.309 195.637 108.81Z" fill="#EBB646"/>
<path d="M144.772 177.462C143.973 177.263 143.373 176.763 142.874 176.063C141.475 173.865 139.476 168.069 147.471 156.977C157.863 142.387 163.459 147.283 163.459 147.283C163.459 147.283 170.355 150.781 162.86 163.072C162.76 163.172 162.76 163.272 162.66 163.372C161.96 165.071 154.566 180.161 144.772 177.462Z" fill="white"/>
<path d="M218.921 236.322C217.222 236.022 216.123 234.523 216.423 232.824C216.822 230.725 218.022 227.528 221.519 224.43C226.915 219.633 230.813 223.93 231.712 225.129C231.912 225.429 232.012 225.729 232.112 226.029C232.312 227.028 232.212 229.027 229.514 232.025C226.416 235.422 222.618 237.021 218.921 236.322Z" fill="white"/>
<path d="M243.904 192.052C244.903 194.65 237.508 184.957 236.509 184.857C235.01 184.657 227.415 203.045 225.516 203.544C223.118 204.144 203.632 189.954 199.434 190.353C191.94 190.853 176.55 213.437 174.552 213.837C172.153 214.237 154.965 193.651 148.77 192.852C146.671 192.552 132.181 210.14 130.982 208.841C130.382 208.241 128.983 194.251 129.183 190.353C129.383 187.855 131.082 200.147 131.781 200.147C132.981 200.247 146.271 186.956 149.069 187.156C151.568 187.356 171.254 204.843 173.153 204.444C175.051 204.044 194.138 185.257 198.235 184.657C201.433 184.258 218.421 196.549 223.018 195.75C225.816 195.35 234.41 180.161 235.909 179.761C237.208 179.661 242.804 189.254 243.904 192.052Z" fill="#A5D4C1"/>
</svg>
