<svg width="372" height="360" viewBox="0 0 372 360" fill="none" xmlns="http://www.w3.org/2000/svg">
<path d="M103.916 172.989H97.3348V191.841C97.3348 191.937 97.3158 192.043 97.2776 192.13C97.2395 192.226 97.1822 192.303 97.1155 192.38C97.0487 192.447 96.9629 192.505 96.877 192.544C96.7912 192.582 96.6863 192.601 96.5909 192.601H92.5279C91.9366 192.601 91.3644 192.361 90.9543 191.937C90.5441 191.513 90.2962 190.926 90.2962 190.329V172.989H83.7439C83.6485 172.989 83.5532 172.969 83.4578 172.931C83.372 172.892 83.2861 172.835 83.2194 172.767C83.1526 172.7 83.0954 172.613 83.0572 172.517C83.0191 172.43 83 172.334 83 172.228V167.79C83 167.693 83.0191 167.587 83.0572 167.501C83.0954 167.404 83.1526 167.327 83.2194 167.25C83.2861 167.183 83.372 167.125 83.4578 167.087C83.5532 167.048 83.6485 167.029 83.7439 167.029H102.428C103.019 167.029 103.591 167.27 104.002 167.693C104.412 168.117 104.66 168.704 104.66 169.301V172.228C104.66 172.324 104.641 172.43 104.602 172.517C104.564 172.613 104.507 172.69 104.44 172.767C104.373 172.844 104.288 172.892 104.202 172.931C104.116 172.969 104.011 172.989 103.916 172.989ZM118.365 176.089C118.336 175.916 118.26 175.762 118.127 175.646C116.944 174.645 115.456 174.106 113.921 174.125C112.204 174.125 110.544 174.857 109.629 176.522L109.6 176.378C109.495 175.868 109.228 175.405 108.827 175.068C108.436 174.731 107.941 174.549 107.425 174.539H104.078C103.982 174.539 103.887 174.558 103.792 174.597C103.706 174.635 103.62 174.693 103.553 174.76C103.487 174.828 103.429 174.914 103.391 175.011C103.353 175.107 103.334 175.203 103.334 175.3V190.319C103.334 190.926 103.572 191.504 103.992 191.927C104.412 192.351 104.974 192.592 105.566 192.592H109.199C109.295 192.592 109.39 192.572 109.486 192.534C109.571 192.495 109.657 192.438 109.724 192.37C109.791 192.303 109.848 192.216 109.886 192.12C109.924 192.024 109.943 191.927 109.943 191.831V183.214C109.943 180.845 111.345 179.825 112.976 179.825C113.797 179.777 114.598 179.998 115.294 180.441C115.38 180.499 115.475 180.537 115.57 180.547C115.666 180.557 115.771 180.557 115.866 180.537C115.962 180.508 116.057 180.47 116.133 180.402C116.21 180.345 116.276 180.258 116.324 180.171L118.27 176.58C118.355 176.436 118.384 176.253 118.355 176.089H118.365ZM137.764 175.242C138.184 175.665 138.422 176.253 138.422 176.85V191.841C138.422 191.937 138.403 192.043 138.365 192.13C138.327 192.226 138.27 192.303 138.203 192.38C138.136 192.447 138.05 192.505 137.964 192.544C137.869 192.582 137.774 192.601 137.678 192.601H134.245C133.711 192.601 133.196 192.399 132.795 192.053C132.395 191.706 132.128 191.215 132.042 190.676C130.554 192.428 128.179 193.044 126.205 192.929C121.026 192.611 118.136 188.837 118.136 183.58C118.136 178.323 121.57 174.173 126.72 174.173C129.209 174.173 130.983 175.049 131.899 176.513L132.128 175.194C132.156 175.02 132.252 174.866 132.376 174.76C132.509 174.645 132.671 174.587 132.843 174.587H136.191C136.782 174.587 137.354 174.828 137.764 175.251V175.242ZM131.87 183.57C131.87 181.173 130.554 179.594 128.236 179.594C126.262 179.594 124.688 181.057 124.688 183.57C124.688 186.083 126.262 187.518 128.236 187.518C130.439 187.518 131.87 185.708 131.87 183.57ZM158.642 174.837C158.317 174.664 157.965 174.568 157.593 174.568H154.445C154.293 174.568 154.15 174.606 154.026 174.693C153.902 174.78 153.806 174.895 153.759 175.04L152.042 179.603L150.268 185.448L148.379 179.603L146.634 175.011C146.577 174.866 146.491 174.751 146.367 174.664C146.243 174.577 146.1 174.539 145.947 174.539H140.597C140.473 174.539 140.349 174.568 140.244 174.626C140.139 174.683 140.044 174.77 139.977 174.876C139.91 174.982 139.862 175.097 139.853 175.222C139.843 175.348 139.853 175.473 139.91 175.588L146.491 191.311C146.672 191.716 146.958 192.062 147.33 192.303C147.693 192.544 148.122 192.678 148.551 192.688H153.129C153.282 192.688 153.425 192.65 153.549 192.563C153.673 192.476 153.768 192.361 153.816 192.216L159.653 177.687C159.786 177.341 159.843 176.965 159.805 176.599C159.767 176.233 159.643 175.877 159.443 175.569C159.243 175.261 158.966 175.011 158.642 174.828V174.837ZM179.968 175.3C180.387 175.723 180.626 176.31 180.626 176.907V191.899C180.626 191.995 180.607 192.101 180.568 192.187C180.53 192.284 180.473 192.361 180.406 192.438C180.339 192.505 180.254 192.563 180.168 192.601C180.082 192.64 179.977 192.659 179.882 192.659H176.448C175.914 192.659 175.399 192.457 174.999 192.11C174.598 191.764 174.331 191.273 174.245 190.734C172.757 192.486 170.382 193.102 168.408 192.987C163.229 192.669 160.339 188.895 160.339 183.638C160.339 178.381 163.773 174.231 168.923 174.231C171.412 174.231 173.186 175.107 174.102 176.57L174.331 175.251C174.36 175.078 174.445 174.924 174.579 174.818C174.712 174.703 174.875 174.645 175.046 174.645H178.394C178.985 174.645 179.548 174.885 179.968 175.309V175.3ZM174.073 183.657C174.073 181.259 172.757 179.68 170.44 179.68C168.465 179.68 166.892 181.144 166.892 183.657C166.892 186.17 168.465 187.604 170.44 187.604C172.643 187.604 174.073 185.794 174.073 183.657ZM188.065 167H184.517C184.422 167 184.326 167.019 184.231 167.058C184.145 167.096 184.059 167.154 183.992 167.221C183.926 167.289 183.868 167.375 183.83 167.472C183.792 167.568 183.773 167.664 183.773 167.761V190.319C183.773 190.926 184.011 191.504 184.431 191.927C184.851 192.351 185.413 192.592 186.005 192.592H189.553C189.648 192.592 189.743 192.572 189.839 192.534C189.925 192.495 190.011 192.438 190.077 192.37C190.144 192.303 190.201 192.216 190.239 192.12C190.278 192.024 190.297 191.927 190.297 191.831V169.282C190.297 168.675 190.058 168.098 189.639 167.674C189.228 167.241 188.656 167 188.065 167ZM212.185 175.271C212.605 175.694 212.843 176.282 212.843 176.879V191.87C212.843 191.966 212.824 192.072 212.786 192.158C212.748 192.255 212.691 192.332 212.624 192.409C212.557 192.476 212.471 192.534 212.385 192.572C212.3 192.611 212.195 192.63 212.099 192.63H208.666C208.132 192.63 207.617 192.428 207.216 192.081C206.816 191.735 206.548 191.244 206.463 190.705C204.975 192.457 202.6 193.073 200.626 192.958C195.447 192.64 192.557 188.866 192.557 183.609C192.557 178.352 195.991 174.202 201.141 174.202C203.63 174.202 205.404 175.078 206.32 176.542L206.548 175.222C206.577 175.049 206.663 174.895 206.796 174.78C206.93 174.664 207.092 174.606 207.264 174.606H210.611C211.203 174.606 211.775 174.847 212.185 175.271ZM206.291 183.599C206.291 181.202 204.975 179.623 202.657 179.623C200.683 179.623 199.109 181.086 199.109 183.599C199.109 186.112 200.683 187.547 202.657 187.547C204.86 187.547 206.291 185.736 206.291 183.599ZM218.137 186.083C213.387 186.083 213.473 192.659 218.137 192.688C222.886 192.688 222.915 186.083 218.137 186.083ZM238.737 188.895L236.878 186.969C236.582 186.642 236.181 186.43 235.752 186.362C235.323 186.295 234.884 186.372 234.503 186.593C233.854 186.959 233.129 187.152 232.386 187.152C229.896 187.152 228.58 185.399 228.58 183.445C228.58 181.192 229.953 179.324 232.443 179.324C233.292 179.305 234.121 179.565 234.818 180.056C235.008 180.2 235.256 180.268 235.495 180.248C235.733 180.229 235.962 180.114 236.134 179.94L237.507 178.419C237.707 178.198 237.86 177.928 237.955 177.639C238.041 177.35 238.07 177.042 238.022 176.744C237.974 176.445 237.87 176.156 237.698 175.906C237.526 175.656 237.307 175.444 237.049 175.29C235.533 174.423 233.816 173.971 232.071 173.971C227.121 173.971 222.199 176.869 222.199 183.406C222.199 189.944 227.035 192.727 232.185 192.727C234.522 192.688 236.782 191.87 238.623 190.387C238.728 190.3 238.823 190.194 238.89 190.069C238.957 189.944 238.995 189.809 239.005 189.665C239.014 189.52 239.005 189.386 238.957 189.251C238.909 189.116 238.842 189 238.747 188.895H238.737ZM259.51 183.397C259.51 189.944 254.417 192.804 249.439 192.804C244.46 192.804 239.367 189.973 239.367 183.397C239.367 176.821 244.317 173.961 249.439 173.961C254.56 173.961 259.51 176.859 259.51 183.397ZM253.072 183.397C253.072 181.317 251.756 179.449 249.439 179.449C247.121 179.449 245.805 181.317 245.805 183.397C245.805 185.477 247.121 187.316 249.439 187.316C251.756 187.316 253.072 185.592 253.072 183.397ZM282.257 173.923C279.825 173.923 277.851 174.654 276.391 176.522C275.504 174.857 273.788 174.009 272.014 173.98C270.183 173.952 268.266 174.712 267.15 176.291C267.026 175.742 266.711 175.251 266.282 174.895C265.843 174.549 265.309 174.356 264.746 174.356H262.085C261.961 174.356 261.847 174.375 261.732 174.423C261.618 174.471 261.523 174.539 261.437 174.626C261.351 174.712 261.284 174.818 261.236 174.934C261.189 175.049 261.17 175.174 261.17 175.29V189.848C261.17 190.522 261.437 191.167 261.894 191.648C262.362 192.13 262.991 192.39 263.649 192.39H266.768C266.892 192.39 267.007 192.37 267.121 192.322C267.235 192.274 267.331 192.207 267.417 192.12C267.503 192.033 267.569 191.927 267.617 191.812C267.665 191.696 267.684 191.571 267.684 191.456V182.511C267.712 180.528 268.885 179.613 270.001 179.613C271.174 179.613 271.861 180.316 271.861 182.386V189.809C271.861 190.483 272.128 191.128 272.596 191.61C273.063 192.091 273.692 192.351 274.35 192.351V192.38H277.383C277.507 192.38 277.622 192.361 277.736 192.313C277.851 192.264 277.946 192.197 278.032 192.11C278.118 192.024 278.184 191.918 278.232 191.802C278.28 191.687 278.299 191.562 278.299 191.446V182.473C278.299 180.489 279.472 179.728 280.588 179.728C281.561 179.728 282.419 180.489 282.419 182.386V189.78C282.419 190.454 282.686 191.099 283.154 191.581C283.621 192.062 284.25 192.322 284.908 192.322H288.084C288.208 192.322 288.323 192.303 288.437 192.255C288.552 192.207 288.647 192.139 288.733 192.053C288.819 191.966 288.886 191.86 288.933 191.744C288.981 191.629 289 191.504 289 191.388V182.299C289 176.31 286.053 173.913 282.247 173.913L282.257 173.923Z" fill="white"/>
</svg>
