<svg width="372" height="360" viewBox="0 0 372 360" fill="none" xmlns="http://www.w3.org/2000/svg">
<path fill-rule="evenodd" clip-rule="evenodd" d="M110.949 193.485L106.157 188.742L87.7142 207L56 175.604L66.1912 165.515L70.9825 170.258L89.4255 152L121.14 183.396L110.949 193.485ZM75.7738 189.156L62.0843 175.604L66.1912 171.538L70.9825 176.281L89.4255 158.023L98.3237 166.832L94.2168 170.898L89.4255 166.155L75.0893 180.347L79.8807 185.09L75.7738 189.156ZM78.816 192.168L87.7142 200.977L106.157 182.719L110.949 187.462L115.055 183.396L101.366 169.844L97.2589 173.91L102.05 178.653L87.7142 192.845L82.9227 188.102L78.816 192.168ZM87.7142 186.822L81.1736 180.347L89.4255 172.178L95.9661 178.653L87.7142 186.822Z" fill="white"/>
<path d="M269.437 184.613C269.524 183.964 269.568 183.229 269.568 182.754C269.437 176.267 265.157 172.203 258.692 172.203C252.185 172.203 247.816 176.743 247.816 183.575C247.816 190.364 252.185 194.861 259.173 194.861C264.677 194.861 268.388 191.532 269.176 187.164H264.458C263.847 189.629 261.706 191.056 258.911 191.056C255.241 191.056 252.883 188.591 252.752 184.829V184.613H269.437ZM258.736 175.965C262.011 175.965 264.283 177.824 264.677 181.111H252.927C253.276 177.954 255.809 175.965 258.736 175.965Z" fill="white"/>
<path d="M283.405 194.861C288.778 194.861 292.797 192.18 292.797 187.943C292.797 183.013 288.647 181.975 283.668 181.37C280.479 181.024 278.338 180.764 278.338 178.689C278.338 176.916 280.172 175.792 282.882 175.792C285.632 175.792 287.511 177.219 287.773 179.251H292.403C292.097 174.711 288.253 172.203 282.793 172.203C277.508 172.203 273.751 174.884 273.751 179.078C273.751 183.662 277.727 184.743 282.793 185.348C286.157 185.781 288.167 185.953 288.167 188.332C288.167 190.105 286.287 191.229 283.449 191.229C280.085 191.229 278.075 189.586 277.902 187.294H273.271C273.446 192.094 277.508 194.861 283.405 194.861Z" fill="white"/>
<path d="M306.61 194.861C311.981 194.861 316 192.18 316 187.943C316 183.013 311.851 181.975 306.871 181.37C303.683 181.024 301.542 180.764 301.542 178.689C301.542 176.916 303.377 175.792 306.085 175.792C308.837 175.792 310.715 177.219 310.978 179.251H315.608C315.302 174.711 311.458 172.203 305.998 172.203C300.713 172.203 296.956 174.884 296.956 179.078C296.956 183.662 300.931 184.743 305.998 185.348C309.362 185.781 311.37 185.953 311.37 188.332C311.37 190.105 309.492 191.229 306.652 191.229C303.289 191.229 301.28 189.586 301.106 187.294H296.476C296.651 192.094 300.713 194.861 306.61 194.861Z" fill="white"/>
<path d="M239.07 190.494V164.333H227.888V168.441H234.352V190.494H227.888V194.602H245.491V190.494H239.07Z" fill="white"/>
<path d="M146.981 190.494V164.333H135.799V168.441H142.264V190.494H135.799V194.602H153.402V190.494H146.981Z" fill="white"/>
<path d="M167.084 194.862C173.767 194.862 178.353 190.321 178.353 183.532C178.353 176.787 173.767 172.203 167.084 172.203C160.357 172.203 155.815 176.787 155.815 183.532C155.815 190.321 160.357 194.862 167.084 194.862ZM167.084 190.883C163.196 190.883 160.619 187.813 160.619 183.532C160.619 179.251 163.196 176.181 167.084 176.181C170.928 176.181 173.505 179.251 173.505 183.532C173.505 187.813 170.928 190.883 167.084 190.883Z" fill="white"/>
<path d="M192.041 194.862C197.414 194.862 201.432 192.181 201.432 187.943C201.432 183.013 197.283 181.976 192.303 181.37C189.115 181.024 186.974 180.765 186.974 178.689C186.974 176.916 188.809 175.792 191.517 175.792C194.269 175.792 196.147 177.219 196.409 179.251H201.039C200.733 174.711 196.89 172.203 191.43 172.203C186.144 172.203 182.388 174.884 182.388 179.078C182.388 183.662 186.363 184.743 191.43 185.348C194.793 185.781 196.802 185.954 196.802 188.332C196.802 190.105 194.924 191.229 192.085 191.229C188.722 191.229 186.712 189.586 186.538 187.294H181.908C182.082 192.094 186.144 194.862 192.041 194.862Z" fill="white"/>
<path d="M215.246 194.862C220.619 194.862 224.638 192.181 224.638 187.943C224.638 183.013 220.487 181.976 215.508 181.37C212.319 181.024 210.18 180.765 210.18 178.689C210.18 176.916 212.014 175.792 214.721 175.792C217.474 175.792 219.351 177.219 219.614 179.251H224.244C223.939 174.711 220.095 172.203 214.635 172.203C209.35 172.203 205.593 174.884 205.593 179.078C205.593 183.662 209.567 184.743 214.635 185.348C217.998 185.781 220.007 185.954 220.007 188.332C220.007 190.105 218.129 191.229 215.29 191.229C211.927 191.229 209.917 189.586 209.742 187.294H205.113C205.287 192.094 209.35 194.862 215.246 194.862Z" fill="white"/>
</svg>
